<?xml version="1.0" standalone="yes"?>

<svg version="1.1" viewBox="0.0 0.0 456.2965879265092 450.87401574803147" fill="none" stroke="none" stroke-linecap="square" stroke-miterlimit="10" xmlns="http://www.w3.org/2000/svg" xmlns:xlink="http://www.w3.org/1999/xlink"><clipPath id="p.0"><path d="m0 0l456.2966 0l0 450.87402l-456.2966 0l0 -450.87402z" clip-rule="nonzero"></path></clipPath><g clip-path="url(#p.0)"><path fill="#000000" fill-opacity="0.0" d="m0 0l456.2966 0l0 450.87402l-456.2966 0z" fill-rule="nonzero"></path><path shape-rendering="crispEdges" fill="#ff0000" d="m0 0l56.692913 0l0 56.0l-56.692913 0l0 -56.0z" fill-rule="nonzero"></path><path shape-rendering="crispEdges" fill="#ff0000" d="m56.692913 0l56.692913 0l0 56.0l-56.692913 0l0 -56.0z" fill-rule="nonzero"></path><path shape-rendering="crispEdges" fill="#ff9900" d="m113.385826 0l56.69291 0l0 56.0l-56.69291 0l0 -56.0z" fill-rule="nonzero"></path><path shape-rendering="crispEdges" fill="#ff9900" d="m170.07874 0l56.692917 0l0 56.0l-56.692917 0l0 -56.0z" fill-rule="nonzero"></path><path shape-rendering="crispEdges" fill="#f1c232" d="m226.77165 0l56.692917 0l0 56.0l-56.692917 0l0 -56.0z" fill-rule="nonzero"></path><path shape-rendering="crispEdges" fill="#f1c232" d="m283.46457 0l56.6929 0l0 56.0l-56.6929 0l0 -56.0z" fill-rule="nonzero"></path><path shape-rendering="crispEdges" fill="#00ff00" d="m340.15747 0l56.692932 0l0 56.0l-56.692932 0l0 -56.0z" fill-rule="nonzero"></path><path shape-rendering="crispEdges" fill="#00ff00" d="m396.8504 0l56.6929 0l0 56.0l-56.6929 0l0 -56.0z" fill-rule="nonzero"></path><path shape-rendering="crispEdges" fill="#ff0000" d="m0 56.0l56.692913 0l0 56.0l-56.692913 0l0 -56.0z" fill-rule="nonzero"></path><path shape-rendering="crispEdges" fill="#ff0000" d="m56.692913 56.0l56.692913 0l0 56.0l-56.692913 0l0 -56.0z" fill-rule="nonzero"></path><path shape-rendering="crispEdges" fill="#ff9900" d="m113.385826 56.0l56.69291 0l0 56.0l-56.69291 0l0 -56.0z" fill-rule="nonzero"></path><path shape-rendering="crispEdges" fill="#ff9900" d="m170.07874 56.0l56.692917 0l0 56.0l-56.692917 0l0 -56.0z" fill-rule="nonzero"></path><path shape-rendering="crispEdges" fill="#f1c232" d="m226.77165 56.0l56.692917 0l0 56.0l-56.692917 0l0 -56.0z" fill-rule="nonzero"></path><path shape-rendering="crispEdges" fill="#f1c232" d="m283.46457 56.0l56.6929 0l0 56.0l-56.6929 0l0 -56.0z" fill-rule="nonzero"></path><path shape-rendering="crispEdges" fill="#00ff00" d="m340.15747 56.0l56.692932 0l0 56.0l-56.692932 0l0 -56.0z" fill-rule="nonzero"></path><path shape-rendering="crispEdges" fill="#00ff00" d="m396.8504 56.0l56.6929 0l0 56.0l-56.6929 0l0 -56.0z" fill-rule="nonzero"></path><path shape-rendering="crispEdges" fill="#00ffff" d="m0 112.0l56.692913 0l0 56.0l-56.692913 0l0 -56.0z" fill-rule="nonzero"></path><path shape-rendering="crispEdges" fill="#00ffff" d="m56.692913 112.0l56.692913 0l0 56.0l-56.692913 0l0 -56.0z" fill-rule="nonzero"></path><path shape-rendering="crispEdges" fill="#4a86e8" d="m113.385826 112.0l56.69291 0l0 56.0l-56.69291 0l0 -56.0z" fill-rule="nonzero"></path><path shape-rendering="crispEdges" fill="#4a86e8" d="m170.07874 112.0l56.692917 0l0 56.0l-56.692917 0l0 -56.0z" fill-rule="nonzero"></path><path shape-rendering="crispEdges" fill="#9900ff" d="m226.77165 112.0l56.692917 0l0 56.0l-56.692917 0l0 -56.0z" fill-rule="nonzero"></path><path shape-rendering="crispEdges" fill="#9900ff" d="m283.46457 112.0l56.6929 0l0 56.0l-56.6929 0l0 -56.0z" fill-rule="nonzero"></path><path shape-rendering="crispEdges" fill="#ff00ff" d="m340.15747 112.0l56.692932 0l0 56.0l-56.692932 0l0 -56.0z" fill-rule="nonzero"></path><path shape-rendering="crispEdges" fill="#ff00ff" d="m396.8504 112.0l56.6929 0l0 56.0l-56.6929 0l0 -56.0z" fill-rule="nonzero"></path><path shape-rendering="crispEdges" fill="#00ffff" d="m0 168.0l56.692913 0l0 56.0l-56.692913 0l0 -56.0z" fill-rule="nonzero"></path><path shape-rendering="crispEdges" fill="#00ffff" d="m56.692913 168.0l56.692913 0l0 56.0l-56.692913 0l0 -56.0z" fill-rule="nonzero"></path><path shape-rendering="crispEdges" fill="#4a86e8" d="m113.385826 168.0l56.69291 0l0 56.0l-56.69291 0l0 -56.0z" fill-rule="nonzero"></path><path shape-rendering="crispEdges" fill="#4a86e8" d="m170.07874 168.0l56.692917 0l0 56.0l-56.692917 0l0 -56.0z" fill-rule="nonzero"></path><path shape-rendering="crispEdges" fill="#9900ff" d="m226.77165 168.0l56.692917 0l0 56.0l-56.692917 0l0 -56.0z" fill-rule="nonzero"></path><path shape-rendering="crispEdges" fill="#9900ff" d="m283.46457 168.0l56.6929 0l0 56.0l-56.6929 0l0 -56.0z" fill-rule="nonzero"></path><path shape-rendering="crispEdges" fill="#ff00ff" d="m340.15747 168.0l56.692932 0l0 56.0l-56.692932 0l0 -56.0z" fill-rule="nonzero"></path><path shape-rendering="crispEdges" fill="#ff00ff" d="m396.8504 168.0l56.6929 0l0 56.0l-56.6929 0l0 -56.0z" fill-rule="nonzero"></path><path shape-rendering="crispEdges" fill="#e6b8af" d="m0 224.0l56.692913 0l0 56.0l-56.692913 0l0 -56.0z" fill-rule="nonzero"></path><path shape-rendering="crispEdges" fill="#e6b8af" d="m56.692913 224.0l56.692913 0l0 56.0l-56.692913 0l0 -56.0z" fill-rule="nonzero"></path><path shape-rendering="crispEdges" fill="#ffd966" d="m113.385826 224.0l56.69291 0l0 56.0l-56.69291 0l0 -56.0z" fill-rule="nonzero"></path><path shape-rendering="crispEdges" fill="#ffd966" d="m170.07874 224.0l56.692917 0l0 56.0l-56.692917 0l0 -56.0z" fill-rule="nonzero"></path><path shape-rendering="crispEdges" fill="#741b47" d="m226.77165 224.0l56.692917 0l0 56.0l-56.692917 0l0 -56.0z" fill-rule="nonzero"></path><path shape-rendering="crispEdges" fill="#741b47" d="m283.46457 224.0l56.6929 0l0 56.0l-56.6929 0l0 -56.0z" fill-rule="nonzero"></path><path shape-rendering="crispEdges" fill="#a2c4c9" d="m340.15747 224.0l56.692932 0l0 56.0l-56.692932 0l0 -56.0z" fill-rule="nonzero"></path><path shape-rendering="crispEdges" fill="#a2c4c9" d="m396.8504 224.0l56.6929 0l0 56.0l-56.6929 0l0 -56.0z" fill-rule="nonzero"></path><path shape-rendering="crispEdges" fill="#e6b8af" d="m0 280.0l56.692913 0l0 56.0l-56.692913 0l0 -56.0z" fill-rule="nonzero"></path><path shape-rendering="crispEdges" fill="#e6b8af" d="m56.692913 280.0l56.692913 0l0 56.0l-56.692913 0l0 -56.0z" fill-rule="nonzero"></path><path shape-rendering="crispEdges" fill="#ffd966" d="m113.385826 280.0l56.69291 0l0 56.0l-56.69291 0l0 -56.0z" fill-rule="nonzero"></path><path shape-rendering="crispEdges" fill="#ffd966" d="m170.07874 280.0l56.692917 0l0 56.0l-56.692917 0l0 -56.0z" fill-rule="nonzero"></path><path shape-rendering="crispEdges" fill="#741b47" d="m226.77165 280.0l56.692917 0l0 56.0l-56.692917 0l0 -56.0z" fill-rule="nonzero"></path><path shape-rendering="crispEdges" fill="#741b47" d="m283.46457 280.0l56.6929 0l0 56.0l-56.6929 0l0 -56.0z" fill-rule="nonzero"></path><path shape-rendering="crispEdges" fill="#a2c4c9" d="m340.15747 280.0l56.692932 0l0 56.0l-56.692932 0l0 -56.0z" fill-rule="nonzero"></path><path shape-rendering="crispEdges" fill="#a2c4c9" d="m396.8504 280.0l56.6929 0l0 56.0l-56.6929 0l0 -56.0z" fill-rule="nonzero"></path><path shape-rendering="crispEdges" fill="#20124d" d="m0 336.0l56.692913 0l0 56.0l-56.692913 0l0 -56.0z" fill-rule="nonzero"></path><path shape-rendering="crispEdges" fill="#20124d" d="m56.692913 336.0l56.692913 0l0 56.0l-56.692913 0l0 -56.0z" fill-rule="nonzero"></path><path shape-rendering="crispEdges" fill="#5b0f00" d="m113.385826 336.0l56.69291 0l0 56.0l-56.69291 0l0 -56.0z" fill-rule="nonzero"></path><path shape-rendering="crispEdges" fill="#5b0f00" d="m170.07874 336.0l56.692917 0l0 56.0l-56.692917 0l0 -56.0z" fill-rule="nonzero"></path><path shape-rendering="crispEdges" fill="#e69138" d="m226.77165 336.0l56.692917 0l0 56.0l-56.692917 0l0 -56.0z" fill-rule="nonzero"></path><path shape-rendering="crispEdges" fill="#e69138" d="m283.46457 336.0l56.6929 0l0 56.0l-56.6929 0l0 -56.0z" fill-rule="nonzero"></path><path shape-rendering="crispEdges" fill="#38761d" d="m340.15747 336.0l56.692932 0l0 56.0l-56.692932 0l0 -56.0z" fill-rule="nonzero"></path><path shape-rendering="crispEdges" fill="#38761d" d="m396.8504 336.0l56.6929 0l0 56.0l-56.6929 0l0 -56.0z" fill-rule="nonzero"></path><path shape-rendering="crispEdges" fill="#20124d" d="m0 392.0l56.692913 0l0 56.0l-56.692913 0l0 -56.0z" fill-rule="nonzero"></path><path shape-rendering="crispEdges" fill="#20124d" d="m56.692913 392.0l56.692913 0l0 56.0l-56.692913 0l0 -56.0z" fill-rule="nonzero"></path><path shape-rendering="crispEdges" fill="#5b0f00" d="m113.385826 392.0l56.69291 0l0 56.0l-56.69291 0l0 -56.0z" fill-rule="nonzero"></path><path shape-rendering="crispEdges" fill="#5b0f00" d="m170.07874 392.0l56.692917 0l0 56.0l-56.692917 0l0 -56.0z" fill-rule="nonzero"></path><path shape-rendering="crispEdges" fill="#e69138" d="m226.77165 392.0l56.692917 0l0 56.0l-56.692917 0l0 -56.0z" fill-rule="nonzero"></path><path shape-rendering="crispEdges" fill="#e69138" d="m283.46457 392.0l56.6929 0l0 56.0l-56.6929 0l0 -56.0z" fill-rule="nonzero"></path><path shape-rendering="crispEdges" fill="#38761d" d="m340.15747 392.0l56.692932 0l0 56.0l-56.692932 0l0 -56.0z" fill-rule="nonzero"></path><path shape-rendering="crispEdges" fill="#38761d" d="m396.8504 392.0l56.6929 0l0 56.0l-56.6929 0l0 -56.0z" fill-rule="nonzero"></path><path stroke="#000000" stroke-width="1.3333333333333333" stroke-linecap="butt" d="m0 -0.49868765l0 448.99738" fill-rule="nonzero"></path><path stroke="#000000" stroke-width="1.3333333333333333" stroke-linecap="butt" d="m56.692913 -0.49868765l0 448.99738" fill-rule="nonzero"></path><path stroke="#000000" stroke-width="1.3333333333333333" stroke-linecap="butt" d="m113.385826 -0.49868765l0 448.99738" fill-rule="nonzero"></path><path stroke="#000000" stroke-width="1.3333333333333333" stroke-linecap="butt" d="m170.07874 -0.49868765l0 448.99738" fill-rule="nonzero"></path><path stroke="#000000" stroke-width="1.3333333333333333" stroke-linecap="butt" d="m226.77165 -0.49868765l0 448.99738" fill-rule="nonzero"></path><path stroke="#000000" stroke-width="1.3333333333333333" stroke-linecap="butt" d="m283.46457 -0.49868765l0 448.99738" fill-rule="nonzero"></path><path stroke="#000000" stroke-width="1.3333333333333333" stroke-linecap="butt" d="m340.15747 -0.49868765l0 448.99738" fill-rule="nonzero"></path><path stroke="#000000" stroke-width="1.3333333333333333" stroke-linecap="butt" d="m396.8504 -0.49868765l0 448.99738" fill-rule="nonzero"></path><path stroke="#000000" stroke-width="1.3333333333333333" stroke-linecap="butt" d="m453.5433 -0.49868765l0 448.99738" fill-rule="nonzero"></path><path stroke="#000000" stroke-width="1.3333333333333333" stroke-linecap="butt" d="m-0.49868765 0l454.54068 0" fill-rule="nonzero"></path><path stroke="#000000" stroke-width="1.3333333333333333" stroke-linecap="butt" d="m-0.49868765 56.0l454.54068 0" fill-rule="nonzero"></path><path stroke="#000000" stroke-width="1.3333333333333333" stroke-linecap="butt" d="m-0.49868765 112.0l454.54068 0" fill-rule="nonzero"></path><path stroke="#000000" stroke-width="1.3333333333333333" stroke-linecap="butt" d="m-0.49868765 168.0l454.54068 0" fill-rule="nonzero"></path><path stroke="#000000" stroke-width="1.3333333333333333" stroke-linecap="butt" d="m-0.49868765 224.0l454.54068 0" fill-rule="nonzero"></path><path stroke="#000000" stroke-width="1.3333333333333333" stroke-linecap="butt" d="m-0.49868765 280.0l454.54068 0" fill-rule="nonzero"></path><path stroke="#000000" stroke-width="1.3333333333333333" stroke-linecap="butt" d="m-0.49868765 336.0l454.54068 0" fill-rule="nonzero"></path><path stroke="#000000" stroke-width="1.3333333333333333" stroke-linecap="butt" d="m-0.49868765 392.0l454.54068 0" fill-rule="nonzero"></path><path stroke="#000000" stroke-width="1.3333333333333333" stroke-linecap="butt" d="m-0.49868765 448.0l454.54068 0" fill-rule="nonzero"></path><path fill="#ffffff" d="m23.28935 33.08l0 -4.515625l-3.921875 -6.21875l2.53125 0l2.53125 4.25l2.46875 -4.25l2.5 0l-3.9375 6.234375l0 4.5l-2.171875 0zm11.775606 0l-2.0625 0l0 -7.75q-1.1250019 1.046875 -2.656252 1.546875l0 -1.859375q0.8125 -0.265625 1.7500019 -1.0q0.9375 -0.734375 1.296875 -1.71875l1.671875 0l0 10.78125z" fill-rule="nonzero"></path><path fill="#ffffff" d="m79.98226 33.08l0 -4.515625l-3.921875 -6.21875l2.53125 0l2.53125 4.25l2.46875 -4.25l2.5 0l-3.9375 6.234375l0 4.5l-2.171875 0zm13.463112 -1.90625l0 1.90625l-7.2187576 0q0.109375 -1.078125 0.6875 -2.046875q0.59375 -0.984375 2.3281326 -2.578125q1.390625 -1.296875 1.703125 -1.765625q0.421875 -0.640625 0.421875 -1.25q0 -0.6875 -0.375 -1.0625q-0.359375 -0.375 -1.015625 -0.375q-0.640625 0 -1.03125 0.390625q-0.37500763 0.390625 -0.42188263 1.296875l-2.0625 -0.21875q0.1875 -1.6875 1.15625 -2.421875q0.96875 -0.75 2.4218826 -0.75q1.578125 0 2.484375 0.859375q0.921875 0.859375 0.921875 2.125q0 0.734375 -0.265625 1.390625q-0.265625 0.65625 -0.828125 1.359375q-0.375 0.484375 -1.34375 1.375q-0.96875 0.890625 -1.234375 1.1875q-0.265625 0.296875 -0.421875 0.578125l4.09375 0z" fill-rule="nonzero"></path><path fill="#ffffff" d="m136.67517 33.08l0 -4.515625l-3.921875 -6.21875l2.53125 0l2.53125 4.25l2.46875 -4.25l2.5 0l-3.9375 6.234375l0 4.5l-2.171875 0zm6.4318542 -2.84375l2.0 -0.25q0.09375 0.765625 0.50001526 1.171875q0.421875 0.390625 1.015625 0.390625q0.640625 0 1.078125 -0.46875q0.4375 -0.484375 0.4375 -1.3125q0 -0.78125 -0.421875 -1.234375q-0.421875 -0.453125 -1.015625 -0.453125q-0.40625 0 -0.953125 0.15625l0.234375 -1.671875q0.828125 0.015625 1.265625 -0.359375q0.453125 -0.390625 0.453125 -1.03125q0 -0.53125 -0.328125 -0.859375q-0.328125 -0.328125 -0.859375 -0.328125q-0.53125 0 -0.90625 0.375q-0.35939026 0.359375 -0.45314026 1.0625l-1.890625 -0.3125q0.203125 -0.984375 0.59375 -1.5625q0.40625 -0.578125 1.109375 -0.90625q0.71876526 -0.34375 1.6093903 -0.34375q1.515625 0 2.421875 0.96875q0.765625 0.78125 0.765625 1.78125q0 1.421875 -1.546875 2.265625q0.921875 0.1875 1.46875 0.875q0.5625 0.6875 0.5625 1.671875q0 1.40625 -1.046875 2.40625q-1.03125 1.0 -2.5625 1.0q-1.4531403 0 -2.4218903 -0.84375q-0.953125 -0.84375 -1.109375 -2.1875z" fill-rule="nonzero"></path><path fill="#ffffff" d="m193.36809 33.08l0 -4.515625l-3.921875 -6.21875l2.53125 0l2.53125 4.25l2.46875 -4.25l2.5 0l-3.9375 6.234375l0 4.5l-2.171875 0zm10.541229 0l0 -2.15625l-4.390625 0l0 -1.8125l4.65625 -6.8125l1.734375 0l0 6.8125l1.328125 0l0 1.8125l-1.328125 0l0 2.15625l-2.0 0zm0 -3.96875l0 -3.671875l-2.46875 3.671875l2.46875 0z" fill-rule="nonzero"></path><path fill="#ffffff" d="m250.061 33.08l0 -4.515625l-3.921875 -6.21875l2.53125 0l2.53125 4.25l2.46875 -4.25l2.5 0l-3.9375 6.234375l0 4.5l-2.171875 0zm6.5412292 -2.765625l2.046875 -0.203125q0.09375 0.6875 0.515625 1.09375q0.4375 0.40625 1.0 0.40625q0.640625 0 1.078125 -0.515625q0.453125 -0.53125 0.453125 -1.578125q0 -1.0 -0.4375 -1.484375q-0.4375 -0.5 -1.15625 -0.5q-0.890625 0 -1.59375 0.78125l-1.65625 -0.234375l1.046875 -5.59375l5.4375 0l0 1.921875l-3.875 0l-0.328125 1.828125q0.6875 -0.34375 1.40625 -0.34375q1.375 0 2.328125 1.0q0.953125 1.0 0.953125 2.578125q0 1.328125 -0.765625 2.375q-1.046875 1.421875 -2.90625 1.421875q-1.5 0 -2.4375 -0.796875q-0.9375 -0.796875 -1.109375 -2.15625z" fill-rule="nonzero"></path><path fill="#ffffff" d="m306.7539 33.08l0 -4.515625l-3.921875 -6.21875l2.53125 0l2.53125 4.25l2.46875 -4.25l2.5 0l-3.9375 6.234375l0 4.5l-2.171875 0zm13.478729 -8.109375l-1.984375 0.21875q-0.078125 -0.609375 -0.390625 -0.90625q-0.3125 -0.296875 -0.796875 -0.296875q-0.65625 0 -1.109375 0.59375q-0.4375 0.578125 -0.5625 2.4375q0.765625 -0.90625 1.921875 -0.90625q1.28125 0 2.203125 0.984375q0.921875 0.96875 0.921875 2.53125q0 1.640625 -0.96875 2.640625q-0.96875 1.0 -2.484375 1.0q-1.625 0 -2.671875 -1.265625q-1.046875 -1.265625 -1.046875 -4.140625q0 -2.953125 1.078125 -4.25q1.09375 -1.3125 2.84375 -1.3125q1.21875 0 2.015625 0.6875q0.8125 0.6875 1.03125 1.984375zm-4.671875 4.484375q0 1.015625 0.46875 1.5625q0.46875 0.53125 1.046875 0.53125q0.578125 0 0.953125 -0.4375q0.390625 -0.453125 0.390625 -1.46875q0 -1.046875 -0.421875 -1.53125q-0.40625 -0.484375 -1.015625 -0.484375q-0.59375 0 -1.015625 0.46875q-0.40625 0.453125 -0.40625 1.359375z" fill-rule="nonzero"></path><path fill="#ffffff" d="m363.44684 33.08l0 -4.515625l-3.921875 -6.21875l2.53125 0l2.53125 4.25l2.46875 -4.25l2.5 0l-3.9375 6.234375l0 4.5l-2.171875 0zm6.5099792 -8.671875l0 -1.921875l7.03125 0l0 1.5q-0.875 0.859375 -1.78125 2.46875q-0.890625 1.59375 -1.359375 3.40625q-0.46875 1.796875 -0.46875 3.21875l-1.984375 0q0.046875 -2.234375 0.921875 -4.546875q0.875 -2.3125 2.3125 -4.125l-4.671875 0z" fill-rule="nonzero"></path><path fill="#ffffff" d="m420.13974 33.08l0 -4.515625l-3.921875 -6.21875l2.53125 0l2.53125 4.25l2.46875 -4.25l2.5 0l-3.9375 6.234375l0 4.5l-2.171875 0zm8.275604 -5.796875q-0.796875 -0.328125 -1.171875 -0.921875q-0.359375 -0.59375 -0.359375 -1.296875q0 -1.203125 0.84375 -1.984375q0.84375 -0.78125 2.390625 -0.78125q1.515625 0 2.359375 0.78125q0.859375 0.78125 0.859375 1.984375q0 0.75 -0.390625 1.34375q-0.390625 0.578125 -1.09375 0.875q0.890625 0.359375 1.359375 1.046875q0.46875 0.6875 0.46875 1.59375q0 1.484375 -0.953125 2.421875q-0.953125 0.921875 -2.515625 0.921875q-1.46875 0 -2.4375 -0.765625q-1.15625 -0.90625 -1.15625 -2.484375q0 -0.875 0.421875 -1.59375q0.4375 -0.734375 1.375 -1.140625zm0.421875 -2.0625q0 0.609375 0.34375 0.953125q0.34375 0.34375 0.9375 0.34375q0.578125 0 0.921875 -0.34375q0.359375 -0.359375 0.359375 -0.96875q0 -0.578125 -0.359375 -0.921875q-0.34375 -0.34375 -0.90625 -0.34375q-0.59375 0 -0.953125 0.359375q-0.34375 0.34375 -0.34375 0.921875zm-0.1875 4.59375q0 0.84375 0.4375 1.328125q0.4375 0.46875 1.078125 0.46875q0.640625 0 1.046875 -0.453125q0.421875 -0.453125 0.421875 -1.328125q0 -0.75 -0.421875 -1.203125q-0.421875 -0.46875 -1.078125 -0.46875q-0.75 0 -1.125 0.53125q-0.359375 0.515625 -0.359375 1.125z" fill-rule="nonzero"></path><path fill="#ffffff" d="m23.28935 89.08l0 -4.515625l-3.921875 -6.21875l2.53125 0l2.53125 4.25l2.46875 -4.25l2.5 0l-3.9375 6.234375l0 4.5l-2.171875 0zm6.5568542 -2.484375l1.984375 -0.21875q0.078125 0.609375 0.3750019 0.90625q0.3125 0.28125 0.828125 0.28125q0.625 0 1.0625 -0.578125q0.453125 -0.59375 0.578125 -2.4375q-0.765625 0.90625 -1.9375 0.90625q-1.2656269 0 -2.187502 -0.96875q-0.921875 -0.984375 -0.921875 -2.5625q0 -1.625 0.96875 -2.625q0.984375 -1.0 2.484377 -1.0q1.625 0 2.671875 1.265625q1.046875 1.265625 1.046875 4.15625q0 2.9375 -1.09375 4.25q-1.078125 1.296875 -2.828125 1.296875q-1.2656269 0 -2.046877 -0.671875q-0.765625 -0.671875 -0.984375 -2.0zm4.656252 -4.5q0 -0.984375 -0.46875 -1.53125q-0.453125 -0.5625 -1.046875 -0.5625q-0.578125 0 -0.953125 0.453125q-0.3750019 0.453125 -0.3750019 1.46875q0 1.046875 0.4062519 1.53125q0.40625 0.484375 1.03125 0.484375q0.59375 0 1.0 -0.46875q0.40625 -0.46875 0.40625 -1.375z" fill-rule="nonzero"></path><path fill="#ffffff" d="m75.90671 89.08l0 -4.515625l-3.921875 -6.21875l2.53125 0l2.53125 4.25l2.46875 -4.25l2.5 0l-3.9375 6.234375l0 4.5l-2.171875 0zm11.775604 0l-2.0625 0l0 -7.75q-1.125 1.046875 -2.65625 1.546875l0 -1.859375q0.8125 -0.265625 1.75 -1.0q0.9375 -0.734375 1.296875 -1.71875l1.671875 0l0 10.78125zm6.3542404 -10.78125q1.5625 0 2.453125 1.109375q1.046875 1.328125 1.046875 4.375q0 3.046875 -1.0625 4.375q-0.875 1.109375 -2.4375 1.109375q-1.5625 0 -2.53125 -1.203125q-0.953125 -1.21875 -0.953125 -4.296875q0 -3.03125 1.0625 -4.375q0.875 -1.09375 2.421875 -1.09375zm0 1.703125q-0.359375 0 -0.65625 0.25q-0.296875 0.234375 -0.453125 0.84375q-0.21875 0.796875 -0.21875 2.6875q0 1.890625 0.1875 2.59375q0.203125 0.703125 0.484375 0.9375q0.296875 0.234375 0.65625 0.234375q0.375 0 0.671875 -0.234375q0.296875 -0.234375 0.453125 -0.84375q0.21875 -0.796875 0.21875 -2.6875q0 -1.890625 -0.203125 -2.59375q-0.1875 -0.703125 -0.484375 -0.9375q-0.28125 -0.25 -0.65625 -0.25z" fill-rule="nonzero"></path><path fill="#ffffff" d="m132.59962 89.08l0 -4.515625l-3.921875 -6.21875l2.53125 0l2.53125 4.25l2.46875 -4.25l2.5 0l-3.9375 6.234375l0 4.5l-2.171875 0zm11.775604 0l-2.0625 0l0 -7.75q-1.125 1.046875 -2.65625 1.546875l0 -1.859375q0.8125 -0.265625 1.75 -1.0q0.9375 -0.734375 1.296875 -1.71875l1.671875 0l0 10.78125zm8.151108 0l-2.0625 0l0 -7.75q-1.125 1.046875 -2.65625 1.546875l0 -1.859375q0.8125 -0.265625 1.75 -1.0q0.9375 -0.734375 1.296875 -1.71875l1.671875 0l0 10.78125z" fill-rule="nonzero"></path><path fill="#ffffff" d="m189.29254 89.08l0 -4.515625l-3.921875 -6.21875l2.53125 0l2.53125 4.25l2.46875 -4.25l2.5 0l-3.9375 6.234375l0 4.5l-2.171875 0zm11.775604 0l-2.0625 0l0 -7.75q-1.125 1.046875 -2.65625 1.546875l0 -1.859375q0.8125 -0.265625 1.75 -1.0q0.9375 -0.734375 1.296875 -1.71875l1.671875 0l0 10.78125zm9.838608 -1.90625l0 1.90625l-7.21875 0q0.109375 -1.078125 0.6875 -2.046875q0.59375 -0.984375 2.328125 -2.578125q1.390625 -1.296875 1.703125 -1.765625q0.421875 -0.640625 0.421875 -1.25q0 -0.6875 -0.375 -1.0625q-0.359375 -0.375 -1.015625 -0.375q-0.640625 0 -1.03125 0.390625q-0.375 0.390625 -0.421875 1.296875l-2.0625 -0.21875q0.1875 -1.6875 1.15625 -2.421875q0.96875 -0.75 2.421875 -0.75q1.578125 0 2.484375 0.859375q0.921875 0.859375 0.921875 2.125q0 0.734375 -0.265625 1.390625q-0.265625 0.65625 -0.828125 1.359375q-0.375 0.484375 -1.34375 1.375q-0.96875 0.890625 -1.234375 1.1875q-0.265625 0.296875 -0.421875 0.578125l4.09375 0z" fill-rule="nonzero"></path><path fill="#ffffff" d="m245.98544 89.08l0 -4.515625l-3.921875 -6.21875l2.53125 0l2.53125 4.25l2.46875 -4.25l2.5 0l-3.9375 6.234375l0 4.5l-2.171875 0zm11.775604 0l-2.0625 0l0 -7.75q-1.125 1.046875 -2.65625 1.546875l0 -1.859375q0.8125 -0.265625 1.75 -1.0q0.9375 -0.734375 1.296875 -1.71875l1.671875 0l0 10.78125zm2.807373 -2.84375l2.0 -0.25q0.09375 0.765625 0.5 1.171875q0.421875 0.390625 1.015625 0.390625q0.640625 0 1.078125 -0.46875q0.4375 -0.484375 0.4375 -1.3125q0 -0.78125 -0.421875 -1.234375q-0.421875 -0.453125 -1.015625 -0.453125q-0.40625 0 -0.953125 0.15625l0.234375 -1.671875q0.828125 0.015625 1.265625 -0.359375q0.453125 -0.390625 0.453125 -1.03125q0 -0.53125 -0.328125 -0.859375q-0.328125 -0.328125 -0.859375 -0.328125q-0.53125 0 -0.90625 0.375q-0.359375 0.359375 -0.453125 1.0625l-1.890625 -0.3125q0.203125 -0.984375 0.59375 -1.5625q0.40625 -0.578125 1.109375 -0.90625q0.71875 -0.34375 1.609375 -0.34375q1.515625 0 2.421875 0.96875q0.765625 0.78125 0.765625 1.78125q0 1.421875 -1.546875 2.265625q0.921875 0.1875 1.46875 0.875q0.5625 0.6875 0.5625 1.671875q0 1.40625 -1.046875 2.40625q-1.03125 1.0 -2.5625 1.0q-1.453125 0 -2.421875 -0.84375q-0.953125 -0.84375 -1.109375 -2.1875z" fill-rule="nonzero"></path><path fill="#ffffff" d="m302.67838 89.08l0 -4.515625l-3.921875 -6.21875l2.53125 0l2.53125 4.25l2.46875 -4.25l2.5 0l-3.9375 6.234375l0 4.5l-2.171875 0zm11.775604 0l-2.0625 0l0 -7.75q-1.125 1.046875 -2.65625 1.546875l0 -1.859375q0.8125 -0.265625 1.75 -1.0q0.9375 -0.734375 1.296875 -1.71875l1.671875 0l0 10.78125zm6.9167175 0l0 -2.15625l-4.390625 0l0 -1.8125l4.65625 -6.8125l1.734375 0l0 6.8125l1.328125 0l0 1.8125l-1.328125 0l0 2.15625l-2.0 0zm0 -3.96875l0 -3.671875l-2.46875 3.671875l2.46875 0z" fill-rule="nonzero"></path><path fill="#ffffff" d="m359.37128 89.08l0 -4.515625l-3.921875 -6.21875l2.53125 0l2.53125 4.25l2.46875 -4.25l2.5 0l-3.9375 6.234375l0 4.5l-2.171875 0zm11.775604 0l-2.0625 0l0 -7.75q-1.125 1.046875 -2.65625 1.546875l0 -1.859375q0.8125 -0.265625 1.75 -1.0q0.9375 -0.734375 1.296875 -1.71875l1.671875 0l0 10.78125zm2.916748 -2.765625l2.046875 -0.203125q0.09375 0.6875 0.515625 1.09375q0.4375 0.40625 1.0 0.40625q0.640625 0 1.078125 -0.515625q0.453125 -0.53125 0.453125 -1.578125q0 -1.0 -0.4375 -1.484375q-0.4375 -0.5 -1.15625 -0.5q-0.890625 0 -1.59375 0.78125l-1.65625 -0.234375l1.046875 -5.59375l5.4375 0l0 1.921875l-3.875 0l-0.328125 1.828125q0.6875 -0.34375 1.40625 -0.34375q1.375 0 2.328125 1.0q0.953125 1.0 0.953125 2.578125q0 1.328125 -0.765625 2.375q-1.046875 1.421875 -2.90625 1.421875q-1.5 0 -2.4375 -0.796875q-0.9375 -0.796875 -1.109375 -2.15625z" fill-rule="nonzero"></path><path fill="#ffffff" d="m416.06418 89.08l0 -4.515625l-3.921875 -6.21875l2.53125 0l2.53125 4.25l2.46875 -4.25l2.5 0l-3.9375 6.234375l0 4.5l-2.171875 0zm11.775604 0l-2.0625 0l0 -7.75q-1.125 1.046875 -2.65625 1.546875l0 -1.859375q0.8125 -0.265625 1.75 -1.0q0.9375 -0.734375 1.296875 -1.71875l1.671875 0l0 10.78125zm9.854248 -8.109375l-1.984375 0.21875q-0.078125 -0.609375 -0.390625 -0.90625q-0.3125 -0.296875 -0.796875 -0.296875q-0.65625 0 -1.109375 0.59375q-0.4375 0.578125 -0.5625 2.4375q0.765625 -0.90625 1.921875 -0.90625q1.28125 0 2.203125 0.984375q0.921875 0.96875 0.921875 2.53125q0 1.640625 -0.96875 2.640625q-0.96875 1.0 -2.484375 1.0q-1.625 0 -2.671875 -1.265625q-1.046875 -1.265625 -1.046875 -4.140625q0 -2.953125 1.078125 -4.25q1.09375 -1.3125 2.84375 -1.3125q1.21875 0 2.015625 0.6875q0.8125 0.6875 1.03125 1.984375zm-4.671875 4.484375q0 1.015625 0.46875 1.5625q0.46875 0.53125 1.046875 0.53125q0.578125 0 0.953125 -0.4375q0.390625 -0.453125 0.390625 -1.46875q0 -1.046875 -0.421875 -1.53125q-0.40625 -0.484375 -1.015625 -0.484375q-0.59375 0 -1.015625 0.46875q-0.40625 0.453125 -0.40625 1.359375z" fill-rule="nonzero"></path><path fill="#ffffff" d="m19.213797 145.08l0 -4.515625l-3.921875 -6.21875l2.53125 0l2.53125 4.25l2.46875 -4.25l2.5 0l-3.9375 6.234375l0 4.5l-2.171875 0zm11.775604 0l-2.0625 0l0 -7.75q-1.125 1.046875 -2.65625 1.546875l0 -1.859375q0.8125 -0.265625 1.75 -1.0q0.9375 -0.734375 1.296875 -1.71875l1.671875 0l0 10.78125zm2.8854847 -8.671875l0 -1.921875l7.03125 0l0 1.5q-0.875 0.859375 -1.78125 2.46875q-0.890625 1.59375 -1.359375 3.40625q-0.46875 1.796875 -0.46875 3.21875l-1.984375 0q0.046875 -2.234375 0.921875 -4.546875q0.875 -2.3125 2.3125 -4.125l-4.671875 0z" fill-rule="nonzero"></path><path fill="#ffffff" d="m75.90671 145.08l0 -4.515625l-3.921875 -6.21875l2.53125 0l2.53125 4.25l2.46875 -4.25l2.5 0l-3.9375 6.234375l0 4.5l-2.171875 0zm11.775604 0l-2.0625 0l0 -7.75q-1.125 1.046875 -2.65625 1.546875l0 -1.859375q0.8125 -0.265625 1.75 -1.0q0.9375 -0.734375 1.296875 -1.71875l1.671875 0l0 10.78125zm4.6511154 -5.796875q-0.796875 -0.328125 -1.171875 -0.921875q-0.359375 -0.59375 -0.359375 -1.296875q0 -1.203125 0.84375 -1.984375q0.84375 -0.78125 2.390625 -0.78125q1.515625 0 2.359375 0.78125q0.859375 0.78125 0.859375 1.984375q0 0.75 -0.390625 1.34375q-0.390625 0.578125 -1.09375 0.875q0.890625 0.359375 1.359375 1.046875q0.46875 0.6875 0.46875 1.59375q0 1.484375 -0.953125 2.421875q-0.953125 0.921875 -2.515625 0.921875q-1.46875 0 -2.4375 -0.765625q-1.15625 -0.90625 -1.15625 -2.484375q0 -0.875 0.421875 -1.59375q0.4375 -0.734375 1.375 -1.140625zm0.421875 -2.0625q0 0.609375 0.34375 0.953125q0.34375 0.34375 0.9375 0.34375q0.578125 0 0.921875 -0.34375q0.359375 -0.359375 0.359375 -0.96875q0 -0.578125 -0.359375 -0.921875q-0.34375 -0.34375 -0.90625 -0.34375q-0.59375 0 -0.953125 0.359375q-0.34375 0.34375 -0.34375 0.921875zm-0.1875 4.59375q0 0.84375 0.4375 1.328125q0.4375 0.46875 1.078125 0.46875q0.640625 0 1.046875 -0.453125q0.421875 -0.453125 0.421875 -1.328125q0 -0.75 -0.421875 -1.203125q-0.421875 -0.46875 -1.078125 -0.46875q-0.75 0 -1.125 0.53125q-0.359375 0.515625 -0.359375 1.125z" fill-rule="nonzero"></path><path fill="#ffffff" d="m132.59962 145.08l0 -4.515625l-3.921875 -6.21875l2.53125 0l2.53125 4.25l2.46875 -4.25l2.5 0l-3.9375 6.234375l0 4.5l-2.171875 0zm11.775604 0l-2.0625 0l0 -7.75q-1.125 1.046875 -2.65625 1.546875l0 -1.859375q0.8125 -0.265625 1.75 -1.0q0.9375 -0.734375 1.296875 -1.71875l1.671875 0l0 10.78125zm2.9323578 -2.484375l1.984375 -0.21875q0.078125 0.609375 0.375 0.90625q0.3125 0.28125 0.828125 0.28125q0.625 0 1.0625 -0.578125q0.453125 -0.59375 0.578125 -2.4375q-0.765625 0.90625 -1.9375 0.90625q-1.265625 0 -2.1875 -0.96875q-0.921875 -0.984375 -0.921875 -2.5625q0 -1.625 0.96875 -2.625q0.984375 -1.0 2.484375 -1.0q1.625 0 2.671875 1.265625q1.046875 1.265625 1.046875 4.15625q0 2.9375 -1.09375 4.25q-1.078125 1.296875 -2.828125 1.296875q-1.265625 0 -2.046875 -0.671875q-0.765625 -0.671875 -0.984375 -2.0zm4.65625 -4.5q0 -0.984375 -0.46875 -1.53125q-0.453125 -0.5625 -1.046875 -0.5625q-0.578125 0 -0.953125 0.453125q-0.375 0.453125 -0.375 1.46875q0 1.046875 0.40625 1.53125q0.40625 0.484375 1.03125 0.484375q0.59375 0 1.0 -0.46875q0.40625 -0.46875 0.40625 -1.375z" fill-rule="nonzero"></path><path fill="#ffffff" d="m189.29254 145.08l0 -4.515625l-3.921875 -6.21875l2.53125 0l2.53125 4.25l2.46875 -4.25l2.5 0l-3.9375 6.234375l0 4.5l-2.171875 0zm13.463104 -1.90625l0 1.90625l-7.21875 0q0.109375 -1.078125 0.6875 -2.046875q0.59375 -0.984375 2.328125 -2.578125q1.390625 -1.296875 1.703125 -1.765625q0.421875 -0.640625 0.421875 -1.25q0 -0.6875 -0.375 -1.0625q-0.359375 -0.375 -1.015625 -0.375q-0.640625 0 -1.03125 0.390625q-0.375 0.390625 -0.421875 1.296875l-2.0625 -0.21875q0.1875 -1.6875 1.15625 -2.421875q0.96875 -0.75 2.421875 -0.75q1.578125 0 2.484375 0.859375q0.921875 0.859375 0.921875 2.125q0 0.734375 -0.265625 1.390625q-0.265625 0.65625 -0.828125 1.359375q-0.375 0.484375 -1.34375 1.375q-0.96875 0.890625 -1.234375 1.1875q-0.265625 0.296875 -0.421875 0.578125l4.09375 0zm4.666733 -8.875q1.5625 0 2.453125 1.109375q1.046875 1.328125 1.046875 4.375q0 3.046875 -1.0625 4.375q-0.875 1.109375 -2.4375 1.109375q-1.5625 0 -2.53125 -1.203125q-0.953125 -1.21875 -0.953125 -4.296875q0 -3.03125 1.0625 -4.375q0.875 -1.09375 2.421875 -1.09375zm0 1.703125q-0.359375 0 -0.65625 0.25q-0.296875 0.234375 -0.453125 0.84375q-0.21875 0.796875 -0.21875 2.6875q0 1.890625 0.1875 2.59375q0.203125 0.703125 0.484375 0.9375q0.296875 0.234375 0.65625 0.234375q0.375 0 0.671875 -0.234375q0.296875 -0.234375 0.453125 -0.84375q0.21875 -0.796875 0.21875 -2.6875q0 -1.890625 -0.203125 -2.59375q-0.1875 -0.703125 -0.484375 -0.9375q-0.28125 -0.25 -0.65625 -0.25z" fill-rule="nonzero"></path><path fill="#ffffff" d="m245.98544 145.08l0 -4.515625l-3.921875 -6.21875l2.53125 0l2.53125 4.25l2.46875 -4.25l2.5 0l-3.9375 6.234375l0 4.5l-2.171875 0zm13.463104 -1.90625l0 1.90625l-7.21875 0q0.109375 -1.078125 0.6875 -2.046875q0.59375 -0.984375 2.328125 -2.578125q1.390625 -1.296875 1.703125 -1.765625q0.421875 -0.640625 0.421875 -1.25q0 -0.6875 -0.375 -1.0625q-0.359375 -0.375 -1.015625 -0.375q-0.640625 0 -1.03125 0.390625q-0.375 0.390625 -0.421875 1.296875l-2.0625 -0.21875q0.1875 -1.6875 1.15625 -2.421875q0.96875 -0.75 2.421875 -0.75q1.578125 0 2.484375 0.859375q0.921875 0.859375 0.921875 2.125q0 0.734375 -0.265625 1.390625q-0.265625 0.65625 -0.828125 1.359375q-0.375 0.484375 -1.34375 1.375q-0.96875 0.890625 -1.234375 1.1875q-0.265625 0.296875 -0.421875 0.578125l4.09375 0zm6.463623 1.90625l-2.0625 0l0 -7.75q-1.125 1.046875 -2.65625 1.546875l0 -1.859375q0.8125 -0.265625 1.75 -1.0q0.9375 -0.734375 1.296875 -1.71875l1.671875 0l0 10.78125z" fill-rule="nonzero"></path><path fill="#ffffff" d="m302.67838 145.08l0 -4.515625l-3.921875 -6.21875l2.53125 0l2.53125 4.25l2.46875 -4.25l2.5 0l-3.9375 6.234375l0 4.5l-2.171875 0zm13.463104 -1.90625l0 1.90625l-7.21875 0q0.109375 -1.078125 0.6875 -2.046875q0.59375 -0.984375 2.328125 -2.578125q1.390625 -1.296875 1.703125 -1.765625q0.421875 -0.640625 0.421875 -1.25q0 -0.6875 -0.375 -1.0625q-0.359375 -0.375 -1.015625 -0.375q-0.640625 0 -1.03125 0.390625q-0.375 0.390625 -0.421875 1.296875l-2.0625 -0.21875q0.1875 -1.6875 1.15625 -2.421875q0.96875 -0.75 2.421875 -0.75q1.578125 0 2.484375 0.859375q0.921875 0.859375 0.921875 2.125q0 0.734375 -0.265625 1.390625q-0.265625 0.65625 -0.828125 1.359375q-0.375 0.484375 -1.34375 1.375q-0.96875 0.890625 -1.234375 1.1875q-0.265625 0.296875 -0.421875 0.578125l4.09375 0zm8.151093 0l0 1.90625l-7.21875 0q0.109375 -1.078125 0.6875 -2.046875q0.59375 -0.984375 2.328125 -2.578125q1.390625 -1.296875 1.703125 -1.765625q0.421875 -0.640625 0.421875 -1.25q0 -0.6875 -0.375 -1.0625q-0.359375 -0.375 -1.015625 -0.375q-0.640625 0 -1.03125 0.390625q-0.375 0.390625 -0.421875 1.296875l-2.0625 -0.21875q0.1875 -1.6875 1.15625 -2.421875q0.96875 -0.75 2.421875 -0.75q1.578125 0 2.484375 0.859375q0.921875 0.859375 0.921875 2.125q0 0.734375 -0.265625 1.390625q-0.265625 0.65625 -0.828125 1.359375q-0.375 0.484375 -1.34375 1.375q-0.96875 0.890625 -1.234375 1.1875q-0.265625 0.296875 -0.421875 0.578125l4.09375 0z" fill-rule="nonzero"></path><path fill="#ffffff" d="m359.37128 145.08l0 -4.515625l-3.921875 -6.21875l2.53125 0l2.53125 4.25l2.46875 -4.25l2.5 0l-3.9375 6.234375l0 4.5l-2.171875 0zm13.463104 -1.90625l0 1.90625l-7.21875 0q0.109375 -1.078125 0.6875 -2.046875q0.59375 -0.984375 2.328125 -2.578125q1.390625 -1.296875 1.703125 -1.765625q0.421875 -0.640625 0.421875 -1.25q0 -0.6875 -0.375 -1.0625q-0.359375 -0.375 -1.015625 -0.375q-0.640625 0 -1.03125 0.390625q-0.375 0.390625 -0.421875 1.296875l-2.0625 -0.21875q0.1875 -1.6875 1.15625 -2.421875q0.96875 -0.75 2.421875 -0.75q1.578125 0 2.484375 0.859375q0.921875 0.859375 0.921875 2.125q0 0.734375 -0.265625 1.390625q-0.265625 0.65625 -0.828125 1.359375q-0.375 0.484375 -1.34375 1.375q-0.96875 0.890625 -1.234375 1.1875q-0.265625 0.296875 -0.421875 0.578125l4.09375 0zm1.119873 -0.9375l2.0 -0.25q0.09375 0.765625 0.5 1.171875q0.421875 0.390625 1.015625 0.390625q0.640625 0 1.078125 -0.46875q0.4375 -0.484375 0.4375 -1.3125q0 -0.78125 -0.421875 -1.234375q-0.421875 -0.453125 -1.015625 -0.453125q-0.40625 0 -0.953125 0.15625l0.234375 -1.671875q0.828125 0.015625 1.265625 -0.359375q0.453125 -0.390625 0.453125 -1.03125q0 -0.53125 -0.328125 -0.859375q-0.328125 -0.328125 -0.859375 -0.328125q-0.53125 0 -0.90625 0.375q-0.359375 0.359375 -0.453125 1.0625l-1.890625 -0.3125q0.203125 -0.984375 0.59375 -1.5625q0.40625 -0.578125 1.109375 -0.90625q0.71875 -0.34375 1.609375 -0.34375q1.515625 0 2.421875 0.96875q0.765625 0.78125 0.765625 1.78125q0 1.421875 -1.546875 2.265625q0.921875 0.1875 1.46875 0.875q0.5625 0.6875 0.5625 1.671875q0 1.40625 -1.046875 2.40625q-1.03125 1.0 -2.5625 1.0q-1.453125 0 -2.421875 -0.84375q-0.953125 -0.84375 -1.109375 -2.1875z" fill-rule="nonzero"></path><path fill="#ffffff" d="m416.06418 145.08l0 -4.515625l-3.921875 -6.21875l2.53125 0l2.53125 4.25l2.46875 -4.25l2.5 0l-3.9375 6.234375l0 4.5l-2.171875 0zm13.463104 -1.90625l0 1.90625l-7.21875 0q0.109375 -1.078125 0.6875 -2.046875q0.59375 -0.984375 2.328125 -2.578125q1.390625 -1.296875 1.703125 -1.765625q0.421875 -0.640625 0.421875 -1.25q0 -0.6875 -0.375 -1.0625q-0.359375 -0.375 -1.015625 -0.375q-0.640625 0 -1.03125 0.390625q-0.375 0.390625 -0.421875 1.296875l-2.0625 -0.21875q0.1875 -1.6875 1.15625 -2.421875q0.96875 -0.75 2.421875 -0.75q1.578125 0 2.484375 0.859375q0.921875 0.859375 0.921875 2.125q0 0.734375 -0.265625 1.390625q-0.265625 0.65625 -0.828125 1.359375q-0.375 0.484375 -1.34375 1.375q-0.96875 0.890625 -1.234375 1.1875q-0.265625 0.296875 -0.421875 0.578125l4.09375 0zm5.229248 1.90625l0 -2.15625l-4.390625 0l0 -1.8125l4.65625 -6.8125l1.734375 0l0 6.8125l1.328125 0l0 1.8125l-1.328125 0l0 2.15625l-2.0 0zm0 -3.96875l0 -3.671875l-2.46875 3.671875l2.46875 0z" fill-rule="nonzero"></path><path fill="#ffffff" d="m19.213797 201.08l0 -4.515625l-3.921875 -6.21875l2.53125 0l2.53125 4.25l2.46875 -4.25l2.5 0l-3.9375 6.234375l0 4.5l-2.171875 0zm13.463106 -1.90625l0 1.90625l-7.218752 0q0.109375 -1.078125 0.6875 -2.046875q0.59375 -0.984375 2.328125 -2.578125q1.390625 -1.296875 1.703125 -1.765625q0.421875 -0.640625 0.421875 -1.25q0 -0.6875 -0.375 -1.0625q-0.359375 -0.375 -1.015625 -0.375q-0.640625 0 -1.03125 0.390625q-0.375 0.390625 -0.421875 1.296875l-2.0625 -0.21875q0.1875 -1.6875 1.15625 -2.421875q0.96875 -0.75 2.421875 -0.75q1.578125 0 2.484375 0.859375q0.9218769 0.859375 0.9218769 2.125q0 0.734375 -0.265625 1.390625q-0.265625 0.65625 -0.8281269 1.359375q-0.375 0.484375 -1.34375 1.375q-0.96875 0.890625 -1.234375 1.1875q-0.265625 0.296875 -0.421875 0.578125l4.093752 0zm1.2292328 -0.859375l2.046875 -0.203125q0.09375 0.6875 0.515625 1.09375q0.4375 0.40625 1.0 0.40625q0.640625 0 1.078125 -0.515625q0.453125 -0.53125 0.453125 -1.578125q0 -1.0 -0.4375 -1.484375q-0.4375 -0.5 -1.15625 -0.5q-0.890625 0 -1.59375 0.78125l-1.65625 -0.234375l1.046875 -5.59375l5.4375 0l0 1.921875l-3.875 0l-0.328125 1.828125q0.6875 -0.34375 1.40625 -0.34375q1.375 0 2.328125 1.0q0.953125 1.0 0.953125 2.578125q0 1.328125 -0.765625 2.375q-1.046875 1.421875 -2.90625 1.421875q-1.5 0 -2.4375 -0.796875q-0.9375 -0.796875 -1.109375 -2.15625z" fill-rule="nonzero"></path><path fill="#ffffff" d="m75.90671 201.08l0 -4.515625l-3.921875 -6.21875l2.53125 0l2.53125 4.25l2.46875 -4.25l2.5 0l-3.9375 6.234375l0 4.5l-2.171875 0zm13.463112 -1.90625l0 1.90625l-7.2187576 0q0.109375 -1.078125 0.6875 -2.046875q0.59375 -0.984375 2.328125 -2.578125q1.390625 -1.296875 1.703125 -1.765625q0.421875 -0.640625 0.421875 -1.25q0 -0.6875 -0.375 -1.0625q-0.359375 -0.375 -1.015625 -0.375q-0.640625 0 -1.03125 0.390625q-0.375 0.390625 -0.421875 1.296875l-2.0625 -0.21875q0.1875 -1.6875 1.15625 -2.421875q0.96875 -0.75 2.421875 -0.75q1.578125 0 2.484375 0.859375q0.9218826 0.859375 0.9218826 2.125q0 0.734375 -0.265625 1.390625q-0.265625 0.65625 -0.8281326 1.359375q-0.375 0.484375 -1.34375 1.375q-0.96875 0.890625 -1.234375 1.1875q-0.265625 0.296875 -0.421875 0.578125l4.0937576 0zm8.166733 -6.203125l-1.984375 0.21875q-0.078125 -0.609375 -0.390625 -0.90625q-0.3125 -0.296875 -0.796875 -0.296875q-0.65625 0 -1.109375 0.59375q-0.4375 0.578125 -0.5625 2.4375q0.765625 -0.90625 1.921875 -0.90625q1.28125 0 2.203125 0.984375q0.921875 0.96875 0.921875 2.53125q0 1.640625 -0.96875 2.640625q-0.96875 1.0 -2.484375 1.0q-1.625 0 -2.671875 -1.265625q-1.046875 -1.265625 -1.046875 -4.140625q0 -2.953125 1.078125 -4.25q1.09375 -1.3125 2.84375 -1.3125q1.21875 0 2.015625 0.6875q0.8125 0.6875 1.03125 1.984375zm-4.671875 4.484375q0 1.015625 0.46875 1.5625q0.46875 0.53125 1.046875 0.53125q0.578125 0 0.953125 -0.4375q0.390625 -0.453125 0.390625 -1.46875q0 -1.046875 -0.421875 -1.53125q-0.40625 -0.484375 -1.015625 -0.484375q-0.59375 0 -1.015625 0.46875q-0.40625 0.453125 -0.40625 1.359375z" fill-rule="nonzero"></path><path fill="#ffffff" d="m132.59962 201.08l0 -4.515625l-3.921875 -6.21875l2.53125 0l2.53125 4.25l2.46875 -4.25l2.5 0l-3.9375 6.234375l0 4.5l-2.171875 0zm13.463104 -1.90625l0 1.90625l-7.21875 0q0.109375 -1.078125 0.6875 -2.046875q0.59375 -0.984375 2.328125 -2.578125q1.390625 -1.296875 1.703125 -1.765625q0.421875 -0.640625 0.421875 -1.25q0 -0.6875 -0.375 -1.0625q-0.359375 -0.375 -1.015625 -0.375q-0.640625 0 -1.03125 0.390625q-0.375 0.390625 -0.421875 1.296875l-2.0625 -0.21875q0.1875 -1.6875 1.15625 -2.421875q0.96875 -0.75 2.421875 -0.75q1.578125 0 2.484375 0.859375q0.921875 0.859375 0.921875 2.125q0 0.734375 -0.265625 1.390625q-0.265625 0.65625 -0.828125 1.359375q-0.375 0.484375 -1.34375 1.375q-0.96875 0.890625 -1.234375 1.1875q-0.265625 0.296875 -0.421875 0.578125l4.09375 0zm1.1979828 -6.765625l0 -1.921875l7.03125 0l0 1.5q-0.875 0.859375 -1.78125 2.46875q-0.890625 1.59375 -1.359375 3.40625q-0.46875 1.796875 -0.46875 3.21875l-1.984375 0q0.046875 -2.234375 0.921875 -4.546875q0.875 -2.3125 2.3125 -4.125l-4.671875 0z" fill-rule="nonzero"></path><path fill="#ffffff" d="m189.29254 201.08l0 -4.515625l-3.921875 -6.21875l2.53125 0l2.53125 4.25l2.46875 -4.25l2.5 0l-3.9375 6.234375l0 4.5l-2.171875 0zm13.463104 -1.90625l0 1.90625l-7.21875 0q0.109375 -1.078125 0.6875 -2.046875q0.59375 -0.984375 2.328125 -2.578125q1.390625 -1.296875 1.703125 -1.765625q0.421875 -0.640625 0.421875 -1.25q0 -0.6875 -0.375 -1.0625q-0.359375 -0.375 -1.015625 -0.375q-0.640625 0 -1.03125 0.390625q-0.375 0.390625 -0.421875 1.296875l-2.0625 -0.21875q0.1875 -1.6875 1.15625 -2.421875q0.96875 -0.75 2.421875 -0.75q1.578125 0 2.484375 0.859375q0.921875 0.859375 0.921875 2.125q0 0.734375 -0.265625 1.390625q-0.265625 0.65625 -0.828125 1.359375q-0.375 0.484375 -1.34375 1.375q-0.96875 0.890625 -1.234375 1.1875q-0.265625 0.296875 -0.421875 0.578125l4.09375 0zm2.9636078 -3.890625q-0.796875 -0.328125 -1.171875 -0.921875q-0.359375 -0.59375 -0.359375 -1.296875q0 -1.203125 0.84375 -1.984375q0.84375 -0.78125 2.390625 -0.78125q1.515625 0 2.359375 0.78125q0.859375 0.78125 0.859375 1.984375q0 0.75 -0.390625 1.34375q-0.390625 0.578125 -1.09375 0.875q0.890625 0.359375 1.359375 1.046875q0.46875 0.6875 0.46875 1.59375q0 1.484375 -0.953125 2.421875q-0.953125 0.921875 -2.515625 0.921875q-1.46875 0 -2.4375 -0.765625q-1.15625 -0.90625 -1.15625 -2.484375q0 -0.875 0.421875 -1.59375q0.4375 -0.734375 1.375 -1.140625zm0.421875 -2.0625q0 0.609375 0.34375 0.953125q0.34375 0.34375 0.9375 0.34375q0.578125 0 0.921875 -0.34375q0.359375 -0.359375 0.359375 -0.96875q0 -0.578125 -0.359375 -0.921875q-0.34375 -0.34375 -0.90625 -0.34375q-0.59375 0 -0.953125 0.359375q-0.34375 0.34375 -0.34375 0.921875zm-0.1875 4.59375q0 0.84375 0.4375 1.328125q0.4375 0.46875 1.078125 0.46875q0.640625 0 1.046875 -0.453125q0.421875 -0.453125 0.421875 -1.328125q0 -0.75 -0.421875 -1.203125q-0.421875 -0.46875 -1.078125 -0.46875q-0.75 0 -1.125 0.53125q-0.359375 0.515625 -0.359375 1.125z" fill-rule="nonzero"></path><path fill="#ffffff" d="m245.98544 201.08l0 -4.515625l-3.921875 -6.21875l2.53125 0l2.53125 4.25l2.46875 -4.25l2.5 0l-3.9375 6.234375l0 4.5l-2.171875 0zm13.463104 -1.90625l0 1.90625l-7.21875 0q0.109375 -1.078125 0.6875 -2.046875q0.59375 -0.984375 2.328125 -2.578125q1.390625 -1.296875 1.703125 -1.765625q0.421875 -0.640625 0.421875 -1.25q0 -0.6875 -0.375 -1.0625q-0.359375 -0.375 -1.015625 -0.375q-0.640625 0 -1.03125 0.390625q-0.375 0.390625 -0.421875 1.296875l-2.0625 -0.21875q0.1875 -1.6875 1.15625 -2.421875q0.96875 -0.75 2.421875 -0.75q1.578125 0 2.484375 0.859375q0.921875 0.859375 0.921875 2.125q0 0.734375 -0.265625 1.390625q-0.265625 0.65625 -0.828125 1.359375q-0.375 0.484375 -1.34375 1.375q-0.96875 0.890625 -1.234375 1.1875q-0.265625 0.296875 -0.421875 0.578125l4.09375 0zm1.244873 -0.578125l1.984375 -0.21875q0.078125 0.609375 0.375 0.90625q0.3125 0.28125 0.828125 0.28125q0.625 0 1.0625 -0.578125q0.453125 -0.59375 0.578125 -2.4375q-0.765625 0.90625 -1.9375 0.90625q-1.265625 0 -2.1875 -0.96875q-0.921875 -0.984375 -0.921875 -2.5625q0 -1.625 0.96875 -2.625q0.984375 -1.0 2.484375 -1.0q1.625 0 2.671875 1.265625q1.046875 1.265625 1.046875 4.15625q0 2.9375 -1.09375 4.25q-1.078125 1.296875 -2.828125 1.296875q-1.265625 0 -2.046875 -0.671875q-0.765625 -0.671875 -0.984375 -2.0zm4.65625 -4.5q0 -0.984375 -0.46875 -1.53125q-0.453125 -0.5625 -1.046875 -0.5625q-0.578125 0 -0.953125 0.453125q-0.375 0.453125 -0.375 1.46875q0 1.046875 0.40625 1.53125q0.40625 0.484375 1.03125 0.484375q0.59375 0 1.0 -0.46875q0.40625 -0.46875 0.40625 -1.375z" fill-rule="nonzero"></path><path fill="#ffffff" d="m302.67838 201.08l0 -4.515625l-3.921875 -6.21875l2.53125 0l2.53125 4.25l2.46875 -4.25l2.5 0l-3.9375 6.234375l0 4.5l-2.171875 0zm6.4318542 -2.84375l2.0 -0.25q0.09375 0.765625 0.5 1.171875q0.421875 0.390625 1.015625 0.390625q0.640625 0 1.078125 -0.46875q0.4375 -0.484375 0.4375 -1.3125q0 -0.78125 -0.421875 -1.234375q-0.421875 -0.453125 -1.015625 -0.453125q-0.40625 0 -0.953125 0.15625l0.234375 -1.671875q0.828125 0.015625 1.265625 -0.359375q0.453125 -0.390625 0.453125 -1.03125q0 -0.53125 -0.328125 -0.859375q-0.328125 -0.328125 -0.859375 -0.328125q-0.53125 0 -0.90625 0.375q-0.359375 0.359375 -0.453125 1.0625l-1.890625 -0.3125q0.203125 -0.984375 0.59375 -1.5625q0.40625 -0.578125 1.109375 -0.90625q0.71875 -0.34375 1.609375 -0.34375q1.515625 0 2.421875 0.96875q0.765625 0.78125 0.765625 1.78125q0 1.421875 -1.546875 2.265625q0.921875 0.1875 1.46875 0.875q0.5625 0.6875 0.5625 1.671875q0 1.40625 -1.046875 2.40625q-1.03125 1.0 -2.5625 1.0q-1.453125 0 -2.421875 -0.84375q-0.953125 -0.84375 -1.109375 -2.1875zm11.697968 -7.9375q1.5625 0 2.453125 1.109375q1.046875 1.328125 1.046875 4.375q0 3.046875 -1.0625 4.375q-0.875 1.109375 -2.4375 1.109375q-1.5625 0 -2.53125 -1.203125q-0.953125 -1.21875 -0.953125 -4.296875q0 -3.03125 1.0625 -4.375q0.875 -1.09375 2.421875 -1.09375zm0 1.703125q-0.359375 0 -0.65625 0.25q-0.296875 0.234375 -0.453125 0.84375q-0.21875 0.796875 -0.21875 2.6875q0 1.890625 0.1875 2.59375q0.203125 0.703125 0.484375 0.9375q0.296875 0.234375 0.65625 0.234375q0.375 0 0.671875 -0.234375q0.296875 -0.234375 0.453125 -0.84375q0.21875 -0.796875 0.21875 -2.6875q0 -1.890625 -0.203125 -2.59375q-0.1875 -0.703125 -0.484375 -0.9375q-0.28125 -0.25 -0.65625 -0.25z" fill-rule="nonzero"></path><path fill="#ffffff" d="m359.37128 201.08l0 -4.515625l-3.921875 -6.21875l2.53125 0l2.53125 4.25l2.46875 -4.25l2.5 0l-3.9375 6.234375l0 4.5l-2.171875 0zm6.4318542 -2.84375l2.0 -0.25q0.09375 0.765625 0.5 1.171875q0.421875 0.390625 1.015625 0.390625q0.640625 0 1.078125 -0.46875q0.4375 -0.484375 0.4375 -1.3125q0 -0.78125 -0.421875 -1.234375q-0.421875 -0.453125 -1.015625 -0.453125q-0.40625 0 -0.953125 0.15625l0.234375 -1.671875q0.828125 0.015625 1.265625 -0.359375q0.453125 -0.390625 0.453125 -1.03125q0 -0.53125 -0.328125 -0.859375q-0.328125 -0.328125 -0.859375 -0.328125q-0.53125 0 -0.90625 0.375q-0.359375 0.359375 -0.453125 1.0625l-1.890625 -0.3125q0.203125 -0.984375 0.59375 -1.5625q0.40625 -0.578125 1.109375 -0.90625q0.71875 -0.34375 1.609375 -0.34375q1.515625 0 2.421875 0.96875q0.765625 0.78125 0.765625 1.78125q0 1.421875 -1.546875 2.265625q0.921875 0.1875 1.46875 0.875q0.5625 0.6875 0.5625 1.671875q0 1.40625 -1.046875 2.40625q-1.03125 1.0 -2.5625 1.0q-1.453125 0 -2.421875 -0.84375q-0.953125 -0.84375 -1.109375 -2.1875zm13.494873 2.84375l-2.0625 0l0 -7.75q-1.125 1.046875 -2.65625 1.546875l0 -1.859375q0.8125 -0.265625 1.75 -1.0q0.9375 -0.734375 1.296875 -1.71875l1.671875 0l0 10.78125z" fill-rule="nonzero"></path><path fill="#ffffff" d="m416.06418 201.08l0 -4.515625l-3.921875 -6.21875l2.53125 0l2.53125 4.25l2.46875 -4.25l2.5 0l-3.9375 6.234375l0 4.5l-2.171875 0zm6.4318542 -2.84375l2.0 -0.25q0.09375 0.765625 0.5 1.171875q0.421875 0.390625 1.015625 0.390625q0.640625 0 1.078125 -0.46875q0.4375 -0.484375 0.4375 -1.3125q0 -0.78125 -0.421875 -1.234375q-0.421875 -0.453125 -1.015625 -0.453125q-0.40625 0 -0.953125 0.15625l0.234375 -1.671875q0.828125 0.015625 1.265625 -0.359375q0.453125 -0.390625 0.453125 -1.03125q0 -0.53125 -0.328125 -0.859375q-0.328125 -0.328125 -0.859375 -0.328125q-0.53125 0 -0.90625 0.375q-0.359375 0.359375 -0.453125 1.0625l-1.890625 -0.3125q0.203125 -0.984375 0.59375 -1.5625q0.40625 -0.578125 1.109375 -0.90625q0.71875 -0.34375 1.609375 -0.34375q1.515625 0 2.421875 0.96875q0.765625 0.78125 0.765625 1.78125q0 1.421875 -1.546875 2.265625q0.921875 0.1875 1.46875 0.875q0.5625 0.6875 0.5625 1.671875q0 1.40625 -1.046875 2.40625q-1.03125 1.0 -2.5625 1.0q-1.453125 0 -2.421875 -0.84375q-0.953125 -0.84375 -1.109375 -2.1875zm15.182373 0.9375l0 1.90625l-7.21875 0q0.109375 -1.078125 0.6875 -2.046875q0.59375 -0.984375 2.328125 -2.578125q1.390625 -1.296875 1.703125 -1.765625q0.421875 -0.640625 0.421875 -1.25q0 -0.6875 -0.375 -1.0625q-0.359375 -0.375 -1.015625 -0.375q-0.640625 0 -1.03125 0.390625q-0.375 0.390625 -0.421875 1.296875l-2.0625 -0.21875q0.1875 -1.6875 1.15625 -2.421875q0.96875 -0.75 2.421875 -0.75q1.578125 0 2.484375 0.859375q0.921875 0.859375 0.921875 2.125q0 0.734375 -0.265625 1.390625q-0.265625 0.65625 -0.828125 1.359375q-0.375 0.484375 -1.34375 1.375q-0.96875 0.890625 -1.234375 1.1875q-0.265625 0.296875 -0.421875 0.578125l4.09375 0z" fill-rule="nonzero"></path><path fill="#ffffff" d="m19.213797 257.08002l0 -4.5156403l-3.921875 -6.21875l2.53125 0l2.53125 4.25l2.46875 -4.25l2.5 0l-3.9375 6.234375l0 4.5000153l-2.171875 0zm6.4318542 -2.8437653l2.0 -0.25q0.09375 0.765625 0.5 1.171875q0.421875 0.390625 1.015625 0.390625q0.640625 0 1.078125 -0.46875q0.4375 -0.484375 0.4375 -1.3125q0 -0.78125 -0.421875 -1.234375q-0.421875 -0.453125 -1.015625 -0.453125q-0.40625 0 -0.953125 0.15625l0.234375 -1.671875q0.828125 0.015625 1.265625 -0.359375q0.453125 -0.390625 0.453125 -1.03125q0 -0.53125 -0.328125 -0.859375q-0.328125 -0.328125 -0.859375 -0.328125q-0.53125 0 -0.90625 0.375q-0.359375 0.359375 -0.453125 1.0625l-1.890625 -0.3125q0.203125 -0.984375 0.59375 -1.5625q0.40625 -0.578125 1.109375 -0.90625q0.71875 -0.34375 1.609375 -0.34375q1.515625 0 2.421875 0.96875q0.7656269 0.78125 0.7656269 1.78125q0 1.421875 -1.5468769 2.265625q0.921875 0.1875 1.4687519 0.875q0.5625 0.6875 0.5625 1.671875q0 1.40625 -1.0468769 2.4062653q-1.03125 1.0 -2.5625 1.0q-1.453125 0 -2.421875 -0.84375q-0.953125 -0.84376526 -1.109375 -2.1875153zm8.15111 0l2.0 -0.25q0.09375 0.765625 0.5 1.171875q0.421875 0.390625 1.015625 0.390625q0.640625 0 1.078125 -0.46875q0.4375 -0.484375 0.4375 -1.3125q0 -0.78125 -0.421875 -1.234375q-0.421875 -0.453125 -1.015625 -0.453125q-0.40625 0 -0.953125 0.15625l0.234375 -1.671875q0.828125 0.015625 1.265625 -0.359375q0.453125 -0.390625 0.453125 -1.03125q0 -0.53125 -0.328125 -0.859375q-0.328125 -0.328125 -0.859375 -0.328125q-0.53125 0 -0.90625 0.375q-0.359375 0.359375 -0.453125 1.0625l-1.890625 -0.3125q0.203125 -0.984375 0.59375 -1.5625q0.40625 -0.578125 1.109375 -0.90625q0.71875 -0.34375 1.609375 -0.34375q1.515625 0 2.421875 0.96875q0.765625 0.78125 0.765625 1.78125q0 1.421875 -1.546875 2.265625q0.921875 0.1875 1.46875 0.875q0.5625 0.6875 0.5625 1.671875q0 1.40625 -1.046875 2.4062653q-1.03125 1.0 -2.5625 1.0q-1.453125 0 -2.421875 -0.84375q-0.953125 -0.84376526 -1.109375 -2.1875153z" fill-rule="nonzero"></path><path fill="#ffffff" d="m75.90671 257.08002l0 -4.5156403l-3.921875 -6.21875l2.53125 0l2.53125 4.25l2.46875 -4.25l2.5 0l-3.9375 6.234375l0 4.5000153l-2.171875 0zm6.4318542 -2.8437653l2.0 -0.25q0.09375 0.765625 0.5 1.171875q0.421875 0.390625 1.015625 0.390625q0.640625 0 1.078125 -0.46875q0.4375 -0.484375 0.4375 -1.3125q0 -0.78125 -0.421875 -1.234375q-0.421875 -0.453125 -1.015625 -0.453125q-0.40625 0 -0.953125 0.15625l0.234375 -1.671875q0.828125 0.015625 1.265625 -0.359375q0.453125 -0.390625 0.453125 -1.03125q0 -0.53125 -0.328125 -0.859375q-0.328125 -0.328125 -0.859375 -0.328125q-0.53125 0 -0.90625 0.375q-0.359375 0.359375 -0.453125 1.0625l-1.890625 -0.3125q0.203125 -0.984375 0.59375 -1.5625q0.40625 -0.578125 1.109375 -0.90625q0.71875 -0.34375 1.609375 -0.34375q1.515625 0 2.421875 0.96875q0.7656326 0.78125 0.7656326 1.78125q0 1.421875 -1.5468826 2.265625q0.921875 0.1875 1.4687576 0.875q0.5625 0.6875 0.5625 1.671875q0 1.40625 -1.0468826 2.4062653q-1.03125 1.0 -2.5625 1.0q-1.453125 0 -2.421875 -0.84375q-0.953125 -0.84376526 -1.109375 -2.1875153zm12.26049 2.8437653l0 -2.1562653l-4.390625 0l0 -1.8125l4.65625 -6.8125l1.734375 0l0 6.8125l1.328125 0l0 1.8125l-1.328125 0l0 2.1562653l-2.0 0zm0 -3.9687653l0 -3.671875l-2.46875 3.671875l2.46875 0z" fill-rule="nonzero"></path><path fill="#ffffff" d="m132.59962 257.08002l0 -4.5156403l-3.921875 -6.21875l2.53125 0l2.53125 4.25l2.46875 -4.25l2.5 0l-3.9375 6.234375l0 4.5000153l-2.171875 0zm6.4318542 -2.8437653l2.0 -0.25q0.09375 0.765625 0.5 1.171875q0.421875 0.390625 1.015625 0.390625q0.640625 0 1.078125 -0.46875q0.4375 -0.484375 0.4375 -1.3125q0 -0.78125 -0.421875 -1.234375q-0.421875 -0.453125 -1.015625 -0.453125q-0.40625 0 -0.953125 0.15625l0.234375 -1.671875q0.828125 0.015625 1.265625 -0.359375q0.453125 -0.390625 0.453125 -1.03125q0 -0.53125 -0.328125 -0.859375q-0.328125 -0.328125 -0.859375 -0.328125q-0.53125 0 -0.90625 0.375q-0.359375 0.359375 -0.453125 1.0625l-1.890625 -0.3125q0.203125 -0.984375 0.59375 -1.5625q0.40625 -0.578125 1.109375 -0.90625q0.71875 -0.34375 1.609375 -0.34375q1.515625 0 2.421875 0.96875q0.765625 0.78125 0.765625 1.78125q0 1.421875 -1.546875 2.265625q0.921875 0.1875 1.46875 0.875q0.5625 0.6875 0.5625 1.671875q0 1.40625 -1.046875 2.4062653q-1.03125 1.0 -2.5625 1.0q-1.453125 0 -2.421875 -0.84375q-0.953125 -0.84376526 -1.109375 -2.1875153zm8.260483 0.078125l2.046875 -0.203125q0.09375 0.6875 0.515625 1.09375q0.4375 0.40625 1.0 0.40625q0.640625 0 1.078125 -0.515625q0.453125 -0.53125 0.453125 -1.578125q0 -1.0 -0.4375 -1.484375q-0.4375 -0.5 -1.15625 -0.5q-0.890625 0 -1.59375 0.78125l-1.65625 -0.234375l1.046875 -5.59375l5.4375 0l0 1.921875l-3.875 0l-0.328125 1.828125q0.6875 -0.34375 1.40625 -0.34375q1.375 0 2.328125 1.0q0.953125 1.0 0.953125 2.578125q0 1.328125 -0.765625 2.375q-1.046875 1.4218903 -2.90625 1.4218903q-1.5 0 -2.4375 -0.796875q-0.9375 -0.79689026 -1.109375 -2.1562653z" fill-rule="nonzero"></path><path fill="#ffffff" d="m189.29254 257.08002l0 -4.5156403l-3.921875 -6.21875l2.53125 0l2.53125 4.25l2.46875 -4.25l2.5 0l-3.9375 6.234375l0 4.5000153l-2.171875 0zm6.4318542 -2.8437653l2.0 -0.25q0.09375 0.765625 0.5 1.171875q0.421875 0.390625 1.015625 0.390625q0.640625 0 1.078125 -0.46875q0.4375 -0.484375 0.4375 -1.3125q0 -0.78125 -0.421875 -1.234375q-0.421875 -0.453125 -1.015625 -0.453125q-0.40625 0 -0.953125 0.15625l0.234375 -1.671875q0.828125 0.015625 1.265625 -0.359375q0.453125 -0.390625 0.453125 -1.03125q0 -0.53125 -0.328125 -0.859375q-0.328125 -0.328125 -0.859375 -0.328125q-0.53125 0 -0.90625 0.375q-0.359375 0.359375 -0.453125 1.0625l-1.890625 -0.3125q0.203125 -0.984375 0.59375 -1.5625q0.40625 -0.578125 1.109375 -0.90625q0.71875 -0.34375 1.609375 -0.34375q1.515625 0 2.421875 0.96875q0.765625 0.78125 0.765625 1.78125q0 1.421875 -1.546875 2.265625q0.921875 0.1875 1.46875 0.875q0.5625 0.6875 0.5625 1.671875q0 1.40625 -1.046875 2.4062653q-1.03125 1.0 -2.5625 1.0q-1.453125 0 -2.421875 -0.84375q-0.953125 -0.84376526 -1.109375 -2.1875153zm15.197983 -5.265625l-1.984375 0.21875q-0.078125 -0.609375 -0.390625 -0.90625q-0.3125 -0.296875 -0.796875 -0.296875q-0.65625 0 -1.109375 0.59375q-0.4375 0.578125 -0.5625 2.4375q0.765625 -0.90625 1.921875 -0.90625q1.28125 0 2.203125 0.984375q0.921875 0.96875 0.921875 2.53125q0 1.640625 -0.96875 2.6406403q-0.96875 1.0 -2.484375 1.0q-1.625 0 -2.671875 -1.265625q-1.046875 -1.2656403 -1.046875 -4.1406403q0 -2.953125 1.078125 -4.25q1.09375 -1.3125 2.84375 -1.3125q1.21875 0 2.015625 0.6875q0.8125 0.6875 1.03125 1.984375zm-4.671875 4.484375q0 1.015625 0.46875 1.5625q0.46875 0.53125 1.046875 0.53125q0.578125 0 0.953125 -0.4375q0.390625 -0.453125 0.390625 -1.46875q0 -1.046875 -0.421875 -1.53125q-0.40625 -0.484375 -1.015625 -0.484375q-0.59375 0 -1.015625 0.46875q-0.40625 0.453125 -0.40625 1.359375z" fill-rule="nonzero"></path><path fill="#ffffff" d="m245.98544 257.08002l0 -4.5156403l-3.921875 -6.21875l2.53125 0l2.53125 4.25l2.46875 -4.25l2.5 0l-3.9375 6.234375l0 4.5000153l-2.171875 0zm6.4318542 -2.8437653l2.0 -0.25q0.09375 0.765625 0.5 1.171875q0.421875 0.390625 1.015625 0.390625q0.640625 0 1.078125 -0.46875q0.4375 -0.484375 0.4375 -1.3125q0 -0.78125 -0.421875 -1.234375q-0.421875 -0.453125 -1.015625 -0.453125q-0.40625 0 -0.953125 0.15625l0.234375 -1.671875q0.828125 0.015625 1.265625 -0.359375q0.453125 -0.390625 0.453125 -1.03125q0 -0.53125 -0.328125 -0.859375q-0.328125 -0.328125 -0.859375 -0.328125q-0.53125 0 -0.90625 0.375q-0.359375 0.359375 -0.453125 1.0625l-1.890625 -0.3125q0.203125 -0.984375 0.59375 -1.5625q0.40625 -0.578125 1.109375 -0.90625q0.71875 -0.34375 1.609375 -0.34375q1.515625 0 2.421875 0.96875q0.765625 0.78125 0.765625 1.78125q0 1.421875 -1.546875 2.265625q0.921875 0.1875 1.46875 0.875q0.5625 0.6875 0.5625 1.671875q0 1.40625 -1.046875 2.4062653q-1.03125 1.0 -2.5625 1.0q-1.453125 0 -2.421875 -0.84375q-0.953125 -0.84376526 -1.109375 -2.1875153zm8.229248 -5.828125l0 -1.921875l7.03125 0l0 1.5q-0.875 0.859375 -1.78125 2.46875q-0.890625 1.59375 -1.359375 3.40625q-0.46875 1.796875 -0.46875 3.2187653l-1.984375 0q0.046875 -2.2343903 0.921875 -4.5468903q0.875 -2.3125 2.3125 -4.125l-4.671875 0z" fill-rule="nonzero"></path><path fill="#ffffff" d="m302.67838 257.08002l0 -4.5156403l-3.921875 -6.21875l2.53125 0l2.53125 4.25l2.46875 -4.25l2.5 0l-3.9375 6.234375l0 4.5000153l-2.171875 0zm6.4318542 -2.8437653l2.0 -0.25q0.09375 0.765625 0.5 1.171875q0.421875 0.390625 1.015625 0.390625q0.640625 0 1.078125 -0.46875q0.4375 -0.484375 0.4375 -1.3125q0 -0.78125 -0.421875 -1.234375q-0.421875 -0.453125 -1.015625 -0.453125q-0.40625 0 -0.953125 0.15625l0.234375 -1.671875q0.828125 0.015625 1.265625 -0.359375q0.453125 -0.390625 0.453125 -1.03125q0 -0.53125 -0.328125 -0.859375q-0.328125 -0.328125 -0.859375 -0.328125q-0.53125 0 -0.90625 0.375q-0.359375 0.359375 -0.453125 1.0625l-1.890625 -0.3125q0.203125 -0.984375 0.59375 -1.5625q0.40625 -0.578125 1.109375 -0.90625q0.71875 -0.34375 1.609375 -0.34375q1.515625 0 2.421875 0.96875q0.765625 0.78125 0.765625 1.78125q0 1.421875 -1.546875 2.265625q0.921875 0.1875 1.46875 0.875q0.5625 0.6875 0.5625 1.671875q0 1.40625 -1.046875 2.4062653q-1.03125 1.0 -2.5625 1.0q-1.453125 0 -2.421875 -0.84375q-0.953125 -0.84376526 -1.109375 -2.1875153zm9.994843 -2.953125q-0.796875 -0.328125 -1.171875 -0.921875q-0.359375 -0.59375 -0.359375 -1.296875q0 -1.203125 0.84375 -1.984375q0.84375 -0.78125 2.390625 -0.78125q1.515625 0 2.359375 0.78125q0.859375 0.78125 0.859375 1.984375q0 0.75 -0.390625 1.34375q-0.390625 0.578125 -1.09375 0.875q0.890625 0.359375 1.359375 1.046875q0.46875 0.6875 0.46875 1.59375q0 1.484375 -0.953125 2.4218903q-0.953125 0.921875 -2.515625 0.921875q-1.46875 0 -2.4375 -0.765625q-1.15625 -0.90626526 -1.15625 -2.4843903q0 -0.875 0.421875 -1.59375q0.4375 -0.734375 1.375 -1.140625zm0.421875 -2.0625q0 0.609375 0.34375 0.953125q0.34375 0.34375 0.9375 0.34375q0.578125 0 0.921875 -0.34375q0.359375 -0.359375 0.359375 -0.96875q0 -0.578125 -0.359375 -0.921875q-0.34375 -0.34375 -0.90625 -0.34375q-0.59375 0 -0.953125 0.359375q-0.34375 0.34375 -0.34375 0.921875zm-0.1875 4.59375q0 0.84375 0.4375 1.328125q0.4375 0.46875 1.078125 0.46875q0.640625 0 1.046875 -0.453125q0.421875 -0.453125 0.421875 -1.328125q0 -0.75 -0.421875 -1.203125q-0.421875 -0.46875 -1.078125 -0.46875q-0.75 0 -1.125 0.53125q-0.359375 0.515625 -0.359375 1.125z" fill-rule="nonzero"></path><path fill="#ffffff" d="m359.37128 257.08002l0 -4.5156403l-3.921875 -6.21875l2.53125 0l2.53125 4.25l2.46875 -4.25l2.5 0l-3.9375 6.234375l0 4.5000153l-2.171875 0zm6.4318542 -2.8437653l2.0 -0.25q0.09375 0.765625 0.5 1.171875q0.421875 0.390625 1.015625 0.390625q0.640625 0 1.078125 -0.46875q0.4375 -0.484375 0.4375 -1.3125q0 -0.78125 -0.421875 -1.234375q-0.421875 -0.453125 -1.015625 -0.453125q-0.40625 0 -0.953125 0.15625l0.234375 -1.671875q0.828125 0.015625 1.265625 -0.359375q0.453125 -0.390625 0.453125 -1.03125q0 -0.53125 -0.328125 -0.859375q-0.328125 -0.328125 -0.859375 -0.328125q-0.53125 0 -0.90625 0.375q-0.359375 0.359375 -0.453125 1.0625l-1.890625 -0.3125q0.203125 -0.984375 0.59375 -1.5625q0.40625 -0.578125 1.109375 -0.90625q0.71875 -0.34375 1.609375 -0.34375q1.515625 0 2.421875 0.96875q0.765625 0.78125 0.765625 1.78125q0 1.421875 -1.546875 2.265625q0.921875 0.1875 1.46875 0.875q0.5625 0.6875 0.5625 1.671875q0 1.40625 -1.046875 2.4062653q-1.03125 1.0 -2.5625 1.0q-1.453125 0 -2.421875 -0.84375q-0.953125 -0.84376526 -1.109375 -2.1875153zm8.276123 0.359375l1.984375 -0.21875q0.078125 0.609375 0.375 0.90625q0.3125 0.28125 0.828125 0.28125q0.625 0 1.0625 -0.578125q0.453125 -0.59375 0.578125 -2.4375q-0.765625 0.90625 -1.9375 0.90625q-1.265625 0 -2.1875 -0.96875q-0.921875 -0.984375 -0.921875 -2.5625q0 -1.625 0.96875 -2.625q0.984375 -1.0 2.484375 -1.0q1.625 0 2.671875 1.265625q1.046875 1.265625 1.046875 4.15625q0 2.9375 -1.09375 4.25q-1.078125 1.2968903 -2.828125 1.2968903q-1.265625 0 -2.046875 -0.671875q-0.765625 -0.67189026 -0.984375 -2.0000153zm4.65625 -4.5q0 -0.984375 -0.46875 -1.53125q-0.453125 -0.5625 -1.046875 -0.5625q-0.578125 0 -0.953125 0.453125q-0.375 0.453125 -0.375 1.46875q0 1.046875 0.40625 1.53125q0.40625 0.484375 1.03125 0.484375q0.59375 0 1.0 -0.46875q0.40625 -0.46875 0.40625 -1.375z" fill-rule="nonzero"></path><path fill="#ffffff" d="m416.06418 257.08002l0 -4.5156403l-3.921875 -6.21875l2.53125 0l2.53125 4.25l2.46875 -4.25l2.5 0l-3.9375 6.234375l0 4.5000153l-2.171875 0zm10.541229 0l0 -2.1562653l-4.390625 0l0 -1.8125l4.65625 -6.8125l1.734375 0l0 6.8125l1.328125 0l0 1.8125l-1.328125 0l0 2.1562653l-2.0 0zm0 -3.9687653l0 -3.671875l-2.46875 3.671875l2.46875 0zm7.588623 -6.8125q1.5625 0 2.453125 1.109375q1.046875 1.328125 1.046875 4.375q0 3.046875 -1.0625 4.3750153q-0.875 1.109375 -2.4375 1.109375q-1.5625 0 -2.53125 -1.203125q-0.953125 -1.2187653 -0.953125 -4.2968903q0 -3.03125 1.0625 -4.375q0.875 -1.09375 2.421875 -1.09375zm0 1.703125q-0.359375 0 -0.65625 0.25q-0.296875 0.234375 -0.453125 0.84375q-0.21875 0.796875 -0.21875 2.6875q0 1.890625 0.1875 2.59375q0.203125 0.703125 0.484375 0.9375q0.296875 0.234375 0.65625 0.234375q0.375 0 0.671875 -0.234375q0.296875 -0.234375 0.453125 -0.84375q0.21875 -0.796875 0.21875 -2.6875q0 -1.890625 -0.203125 -2.59375q-0.1875 -0.703125 -0.484375 -0.9375q-0.28125 -0.25 -0.65625 -0.25z" fill-rule="nonzero"></path><path fill="#ffffff" d="m19.213797 313.08002l0 -4.515625l-3.921875 -6.21875l2.53125 0l2.53125 4.25l2.46875 -4.25l2.5 0l-3.9375 6.234375l0 4.5l-2.171875 0zm10.541229 0l0 -2.15625l-4.390625 0l0 -1.8125l4.65625 -6.8125l1.734375 0l0 6.8125l1.3281269 0l0 1.8125l-1.3281269 0l0 2.15625l-2.0 0zm0 -3.96875l0 -3.671875l-2.46875 3.671875l2.46875 0zm9.385485 3.96875l-2.0625 0l0 -7.75q-1.125 1.046875 -2.65625 1.546875l0 -1.859375q0.8125 -0.265625 1.75 -1.0q0.9375 -0.734375 1.296875 -1.71875l1.671875 0l0 10.78125z" fill-rule="nonzero"></path><path fill="#ffffff" d="m75.90671 313.08002l0 -4.515625l-3.921875 -6.21875l2.53125 0l2.53125 4.25l2.46875 -4.25l2.5 0l-3.9375 6.234375l0 4.5l-2.171875 0zm10.541229 0l0 -2.15625l-4.390625 0l0 -1.8125l4.65625 -6.8125l1.734375 0l0 6.8125l1.3281326 0l0 1.8125l-1.3281326 0l0 2.15625l-2.0 0zm0 -3.96875l0 -3.671875l-2.46875 3.671875l2.46875 0zm11.07299 2.0625l0 1.90625l-7.21875 0q0.109375 -1.078125 0.6875 -2.046875q0.59375 -0.984375 2.328125 -2.578125q1.390625 -1.296875 1.703125 -1.765625q0.421875 -0.640625 0.421875 -1.25q0 -0.6875 -0.375 -1.0625q-0.359375 -0.375 -1.015625 -0.375q-0.640625 0 -1.03125 0.390625q-0.375 0.390625 -0.421875 1.296875l-2.0625 -0.21875q0.1875 -1.6875 1.15625 -2.421875q0.96875 -0.75 2.421875 -0.75q1.578125 0 2.484375 0.859375q0.921875 0.859375 0.921875 2.125q0 0.734375 -0.265625 1.390625q-0.265625 0.65625 -0.828125 1.359375q-0.375 0.484375 -1.34375 1.375q-0.96875 0.890625 -1.234375 1.1875q-0.265625 0.296875 -0.421875 0.578125l4.09375 0z" fill-rule="nonzero"></path><path fill="#ffffff" d="m132.59962 313.08002l0 -4.515625l-3.921875 -6.21875l2.53125 0l2.53125 4.25l2.46875 -4.25l2.5 0l-3.9375 6.234375l0 4.5l-2.171875 0zm10.541229 0l0 -2.15625l-4.390625 0l0 -1.8125l4.65625 -6.8125l1.734375 0l0 6.8125l1.328125 0l0 1.8125l-1.328125 0l0 2.15625l-2.0 0zm0 -3.96875l0 -3.671875l-2.46875 3.671875l2.46875 0zm4.041733 1.125l2.0 -0.25q0.09375 0.765625 0.5 1.171875q0.421875 0.390625 1.015625 0.390625q0.640625 0 1.078125 -0.46875q0.4375 -0.484375 0.4375 -1.3125q0 -0.78125 -0.421875 -1.234375q-0.421875 -0.453125 -1.015625 -0.453125q-0.40625 0 -0.953125 0.15625l0.234375 -1.671875q0.828125 0.015625 1.265625 -0.359375q0.453125 -0.390625 0.453125 -1.03125q0 -0.53125 -0.328125 -0.859375q-0.328125 -0.328125 -0.859375 -0.328125q-0.53125 0 -0.90625 0.375q-0.359375 0.359375 -0.453125 1.0625l-1.890625 -0.3125q0.203125 -0.984375 0.59375 -1.5625q0.40625 -0.578125 1.109375 -0.90625q0.71875 -0.34375 1.609375 -0.34375q1.515625 0 2.421875 0.96875q0.765625 0.78125 0.765625 1.78125q0 1.421875 -1.546875 2.265625q0.921875 0.1875 1.46875 0.875q0.5625 0.6875 0.5625 1.671875q0 1.40625 -1.046875 2.40625q-1.03125 1.0 -2.5625 1.0q-1.453125 0 -2.421875 -0.84375q-0.953125 -0.84375 -1.109375 -2.1875z" fill-rule="nonzero"></path><path fill="#ffffff" d="m189.29254 313.08002l0 -4.515625l-3.921875 -6.21875l2.53125 0l2.53125 4.25l2.46875 -4.25l2.5 0l-3.9375 6.234375l0 4.5l-2.171875 0zm10.541229 0l0 -2.15625l-4.390625 0l0 -1.8125l4.65625 -6.8125l1.734375 0l0 6.8125l1.328125 0l0 1.8125l-1.328125 0l0 2.15625l-2.0 0zm0 -3.96875l0 -3.671875l-2.46875 3.671875l2.46875 0zm8.151108 3.96875l0 -2.15625l-4.390625 0l0 -1.8125l4.65625 -6.8125l1.734375 0l0 6.8125l1.328125 0l0 1.8125l-1.328125 0l0 2.15625l-2.0 0zm0 -3.96875l0 -3.671875l-2.46875 3.671875l2.46875 0z" fill-rule="nonzero"></path><path fill="#ffffff" d="m245.98544 313.08002l0 -4.515625l-3.921875 -6.21875l2.53125 0l2.53125 4.25l2.46875 -4.25l2.5 0l-3.9375 6.234375l0 4.5l-2.171875 0zm10.541229 0l0 -2.15625l-4.390625 0l0 -1.8125l4.65625 -6.8125l1.734375 0l0 6.8125l1.328125 0l0 1.8125l-1.328125 0l0 2.15625l-2.0 0zm0 -3.96875l0 -3.671875l-2.46875 3.671875l2.46875 0zm4.151123 1.203125l2.046875 -0.203125q0.09375 0.6875 0.515625 1.09375q0.4375 0.40625 1.0 0.40625q0.640625 0 1.078125 -0.515625q0.453125 -0.53125 0.453125 -1.578125q0 -1.0 -0.4375 -1.484375q-0.4375 -0.5 -1.15625 -0.5q-0.890625 0 -1.59375 0.78125l-1.65625 -0.234375l1.046875 -5.59375l5.4375 0l0 1.921875l-3.875 0l-0.328125 1.828125q0.6875 -0.34375 1.40625 -0.34375q1.375 0 2.328125 1.0q0.953125 1.0 0.953125 2.578125q0 1.328125 -0.765625 2.375q-1.046875 1.421875 -2.90625 1.421875q-1.5 0 -2.4375 -0.796875q-0.9375 -0.796875 -1.109375 -2.15625z" fill-rule="nonzero"></path><path fill="#ffffff" d="m302.67838 313.08002l0 -4.515625l-3.921875 -6.21875l2.53125 0l2.53125 4.25l2.46875 -4.25l2.5 0l-3.9375 6.234375l0 4.5l-2.171875 0zm10.541229 0l0 -2.15625l-4.390625 0l0 -1.8125l4.65625 -6.8125l1.734375 0l0 6.8125l1.328125 0l0 1.8125l-1.328125 0l0 2.15625l-2.0 0zm0 -3.96875l0 -3.671875l-2.46875 3.671875l2.46875 0zm11.088593 -4.140625l-1.984375 0.21875q-0.078125 -0.609375 -0.390625 -0.90625q-0.3125 -0.296875 -0.796875 -0.296875q-0.65625 0 -1.109375 0.59375q-0.4375 0.578125 -0.5625 2.4375q0.765625 -0.90625 1.921875 -0.90625q1.28125 0 2.203125 0.984375q0.921875 0.96875 0.921875 2.53125q0 1.640625 -0.96875 2.640625q-0.96875 1.0 -2.484375 1.0q-1.625 0 -2.671875 -1.265625q-1.046875 -1.265625 -1.046875 -4.140625q0 -2.953125 1.078125 -4.25q1.09375 -1.3125 2.84375 -1.3125q1.21875 0 2.015625 0.6875q0.8125 0.6875 1.03125 1.984375zm-4.671875 4.484375q0 1.015625 0.46875 1.5625q0.46875 0.53125 1.046875 0.53125q0.578125 0 0.953125 -0.4375q0.390625 -0.453125 0.390625 -1.46875q0 -1.046875 -0.421875 -1.53125q-0.40625 -0.484375 -1.015625 -0.484375q-0.59375 0 -1.015625 0.46875q-0.40625 0.453125 -0.40625 1.359375z" fill-rule="nonzero"></path><path fill="#ffffff" d="m359.37128 313.08002l0 -4.515625l-3.921875 -6.21875l2.53125 0l2.53125 4.25l2.46875 -4.25l2.5 0l-3.9375 6.234375l0 4.5l-2.171875 0zm10.541229 0l0 -2.15625l-4.390625 0l0 -1.8125l4.65625 -6.8125l1.734375 0l0 6.8125l1.328125 0l0 1.8125l-1.328125 0l0 2.15625l-2.0 0zm0 -3.96875l0 -3.671875l-2.46875 3.671875l2.46875 0zm4.119873 -4.703125l0 -1.921875l7.03125 0l0 1.5q-0.875 0.859375 -1.78125 2.46875q-0.890625 1.59375 -1.359375 3.40625q-0.46875 1.796875 -0.46875 3.21875l-1.984375 0q0.046875 -2.234375 0.921875 -4.546875q0.875 -2.3125 2.3125 -4.125l-4.671875 0z" fill-rule="nonzero"></path><path fill="#ffffff" d="m416.06418 313.08002l0 -4.515625l-3.921875 -6.21875l2.53125 0l2.53125 4.25l2.46875 -4.25l2.5 0l-3.9375 6.234375l0 4.5l-2.171875 0zm10.541229 0l0 -2.15625l-4.390625 0l0 -1.8125l4.65625 -6.8125l1.734375 0l0 6.8125l1.328125 0l0 1.8125l-1.328125 0l0 2.15625l-2.0 0zm0 -3.96875l0 -3.671875l-2.46875 3.671875l2.46875 0zm5.885498 -1.828125q-0.796875 -0.328125 -1.171875 -0.921875q-0.359375 -0.59375 -0.359375 -1.296875q0 -1.203125 0.84375 -1.984375q0.84375 -0.78125 2.390625 -0.78125q1.515625 0 2.359375 0.78125q0.859375 0.78125 0.859375 1.984375q0 0.75 -0.390625 1.34375q-0.390625 0.578125 -1.09375 0.875q0.890625 0.359375 1.359375 1.046875q0.46875 0.6875 0.46875 1.59375q0 1.484375 -0.953125 2.421875q-0.953125 0.921875 -2.515625 0.921875q-1.46875 0 -2.4375 -0.765625q-1.15625 -0.90625 -1.15625 -2.484375q0 -0.875 0.421875 -1.59375q0.4375 -0.734375 1.375 -1.140625zm0.421875 -2.0625q0 0.609375 0.34375 0.953125q0.34375 0.34375 0.9375 0.34375q0.578125 0 0.921875 -0.34375q0.359375 -0.359375 0.359375 -0.96875q0 -0.578125 -0.359375 -0.921875q-0.34375 -0.34375 -0.90625 -0.34375q-0.59375 0 -0.953125 0.359375q-0.34375 0.34375 -0.34375 0.921875zm-0.1875 4.59375q0 0.84375 0.4375 1.328125q0.4375 0.46875 1.078125 0.46875q0.640625 0 1.046875 -0.453125q0.421875 -0.453125 0.421875 -1.328125q0 -0.75 -0.421875 -1.203125q-0.421875 -0.46875 -1.078125 -0.46875q-0.75 0 -1.125 0.53125q-0.359375 0.515625 -0.359375 1.125z" fill-rule="nonzero"></path><path fill="#ffffff" d="m19.213797 369.08002l0 -4.515625l-3.921875 -6.21875l2.53125 0l2.53125 4.25l2.46875 -4.25l2.5 0l-3.9375 6.234375l0 4.5l-2.171875 0zm10.541229 0l0 -2.15625l-4.390625 0l0 -1.8125l4.65625 -6.8125l1.734375 0l0 6.8125l1.3281269 0l0 1.8125l-1.3281269 0l0 2.15625l-2.0 0zm0 -3.96875l0 -3.671875l-2.46875 3.671875l2.46875 0zm4.1667347 1.484375l1.984375 -0.21875q0.078125 0.609375 0.375 0.90625q0.3125 0.28125 0.828125 0.28125q0.625 0 1.0625 -0.578125q0.453125 -0.59375 0.578125 -2.4375q-0.765625 0.90625 -1.9375 0.90625q-1.265625 0 -2.1875 -0.96875q-0.921875 -0.984375 -0.921875 -2.5625q0 -1.625 0.96875 -2.625q0.984375 -1.0 2.484375 -1.0q1.625 0 2.671875 1.265625q1.046875 1.265625 1.046875 4.15625q0 2.9375 -1.09375 4.25q-1.078125 1.296875 -2.828125 1.296875q-1.265625 0 -2.046875 -0.671875q-0.765625 -0.671875 -0.984375 -2.0zm4.65625 -4.5q0 -0.984375 -0.46875 -1.53125q-0.453125 -0.5625 -1.046875 -0.5625q-0.578125 0 -0.953125 0.453125q-0.375 0.453125 -0.375 1.46875q0 1.046875 0.40625 1.53125q0.40625 0.484375 1.03125 0.484375q0.59375 0 1.0 -0.46875q0.40625 -0.46875 0.40625 -1.375z" fill-rule="nonzero"></path><path fill="#ffffff" d="m75.90671 369.08002l0 -4.515625l-3.921875 -6.21875l2.53125 0l2.53125 4.25l2.46875 -4.25l2.5 0l-3.9375 6.234375l0 4.5l-2.171875 0zm6.5412292 -2.765625l2.046875 -0.203125q0.09375 0.6875 0.515625 1.09375q0.4375 0.40625 1.0 0.40625q0.640625 0 1.078125 -0.515625q0.453125 -0.53125 0.453125 -1.578125q0 -1.0 -0.4375 -1.484375q-0.4375 -0.5 -1.15625 -0.5q-0.890625 0 -1.59375 0.78125l-1.65625 -0.234375l1.046875 -5.59375l5.4375076 0l0 1.921875l-3.8750076 0l-0.328125 1.828125q0.6875 -0.34375 1.40625 -0.34375q1.375 0 2.3281326 1.0q0.953125 1.0 0.953125 2.578125q0 1.328125 -0.765625 2.375q-1.0468826 1.421875 -2.9062576 1.421875q-1.5 0 -2.4375 -0.796875q-0.9375 -0.796875 -1.109375 -2.15625zm11.588615 -8.015625q1.5625 0 2.453125 1.109375q1.046875 1.328125 1.046875 4.375q0 3.046875 -1.0625 4.375q-0.875 1.109375 -2.4375 1.109375q-1.5625 0 -2.53125 -1.203125q-0.953125 -1.21875 -0.953125 -4.296875q0 -3.03125 1.0625 -4.375q0.875 -1.09375 2.421875 -1.09375zm0 1.703125q-0.359375 0 -0.65625 0.25q-0.296875 0.234375 -0.453125 0.84375q-0.21875 0.796875 -0.21875 2.6875q0 1.890625 0.1875 2.59375q0.203125 0.703125 0.484375 0.9375q0.296875 0.234375 0.65625 0.234375q0.375 0 0.671875 -0.234375q0.296875 -0.234375 0.453125 -0.84375q0.21875 -0.796875 0.21875 -2.6875q0 -1.890625 -0.203125 -2.59375q-0.1875 -0.703125 -0.484375 -0.9375q-0.28125 -0.25 -0.65625 -0.25z" fill-rule="nonzero"></path><path fill="#ffffff" d="m132.59962 369.08002l0 -4.515625l-3.921875 -6.21875l2.53125 0l2.53125 4.25l2.46875 -4.25l2.5 0l-3.9375 6.234375l0 4.5l-2.171875 0zm6.5412292 -2.765625l2.046875 -0.203125q0.09375 0.6875 0.515625 1.09375q0.4375 0.40625 1.0 0.40625q0.640625 0 1.078125 -0.515625q0.453125 -0.53125 0.453125 -1.578125q0 -1.0 -0.4375 -1.484375q-0.4375 -0.5 -1.15625 -0.5q-0.890625 0 -1.59375 0.78125l-1.65625 -0.234375l1.046875 -5.59375l5.4375 0l0 1.921875l-3.875 0l-0.328125 1.828125q0.6875 -0.34375 1.40625 -0.34375q1.375 0 2.328125 1.0q0.953125 1.0 0.953125 2.578125q0 1.328125 -0.765625 2.375q-1.046875 1.421875 -2.90625 1.421875q-1.5 0 -2.4375 -0.796875q-0.9375 -0.796875 -1.109375 -2.15625zm13.385483 2.765625l-2.0625 0l0 -7.75q-1.125 1.046875 -2.65625 1.546875l0 -1.859375q0.8125 -0.265625 1.75 -1.0q0.9375 -0.734375 1.296875 -1.71875l1.671875 0l0 10.78125z" fill-rule="nonzero"></path><path fill="#ffffff" d="m189.29254 369.08002l0 -4.515625l-3.921875 -6.21875l2.53125 0l2.53125 4.25l2.46875 -4.25l2.5 0l-3.9375 6.234375l0 4.5l-2.171875 0zm6.5412292 -2.765625l2.046875 -0.203125q0.09375 0.6875 0.515625 1.09375q0.4375 0.40625 1.0 0.40625q0.640625 0 1.078125 -0.515625q0.453125 -0.53125 0.453125 -1.578125q0 -1.0 -0.4375 -1.484375q-0.4375 -0.5 -1.15625 -0.5q-0.890625 0 -1.59375 0.78125l-1.65625 -0.234375l1.046875 -5.59375l5.4375 0l0 1.921875l-3.875 0l-0.328125 1.828125q0.6875 -0.34375 1.40625 -0.34375q1.375 0 2.328125 1.0q0.953125 1.0 0.953125 2.578125q0 1.328125 -0.765625 2.375q-1.046875 1.421875 -2.90625 1.421875q-1.5 0 -2.4375 -0.796875q-0.9375 -0.796875 -1.109375 -2.15625zm15.072983 0.859375l0 1.90625l-7.21875 0q0.109375 -1.078125 0.6875 -2.046875q0.59375 -0.984375 2.328125 -2.578125q1.390625 -1.296875 1.703125 -1.765625q0.421875 -0.640625 0.421875 -1.25q0 -0.6875 -0.375 -1.0625q-0.359375 -0.375 -1.015625 -0.375q-0.640625 0 -1.03125 0.390625q-0.375 0.390625 -0.421875 1.296875l-2.0625 -0.21875q0.1875 -1.6875 1.15625 -2.421875q0.96875 -0.75 2.421875 -0.75q1.578125 0 2.484375 0.859375q0.921875 0.859375 0.921875 2.125q0 0.734375 -0.265625 1.390625q-0.265625 0.65625 -0.828125 1.359375q-0.375 0.484375 -1.34375 1.375q-0.96875 0.890625 -1.234375 1.1875q-0.265625 0.296875 -0.421875 0.578125l4.09375 0z" fill-rule="nonzero"></path><path fill="#ffffff" d="m245.98544 369.08002l0 -4.515625l-3.921875 -6.21875l2.53125 0l2.53125 4.25l2.46875 -4.25l2.5 0l-3.9375 6.234375l0 4.5l-2.171875 0zm6.5412292 -2.765625l2.046875 -0.203125q0.09375 0.6875 0.515625 1.09375q0.4375 0.40625 1.0 0.40625q0.640625 0 1.078125 -0.515625q0.453125 -0.53125 0.453125 -1.578125q0 -1.0 -0.4375 -1.484375q-0.4375 -0.5 -1.15625 -0.5q-0.890625 0 -1.59375 0.78125l-1.65625 -0.234375l1.046875 -5.59375l5.4375 0l0 1.921875l-3.875 0l-0.328125 1.828125q0.6875 -0.34375 1.40625 -0.34375q1.375 0 2.328125 1.0q0.953125 1.0 0.953125 2.578125q0 1.328125 -0.765625 2.375q-1.046875 1.421875 -2.90625 1.421875q-1.5 0 -2.4375 -0.796875q-0.9375 -0.796875 -1.109375 -2.15625zm8.041748 -0.078125l2.0 -0.25q0.09375 0.765625 0.5 1.171875q0.421875 0.390625 1.015625 0.390625q0.640625 0 1.078125 -0.46875q0.4375 -0.484375 0.4375 -1.3125q0 -0.78125 -0.421875 -1.234375q-0.421875 -0.453125 -1.015625 -0.453125q-0.40625 0 -0.953125 0.15625l0.234375 -1.671875q0.828125 0.015625 1.265625 -0.359375q0.453125 -0.390625 0.453125 -1.03125q0 -0.53125 -0.328125 -0.859375q-0.328125 -0.328125 -0.859375 -0.328125q-0.53125 0 -0.90625 0.375q-0.359375 0.359375 -0.453125 1.0625l-1.890625 -0.3125q0.203125 -0.984375 0.59375 -1.5625q0.40625 -0.578125 1.109375 -0.90625q0.71875 -0.34375 1.609375 -0.34375q1.515625 0 2.421875 0.96875q0.765625 0.78125 0.765625 1.78125q0 1.421875 -1.546875 2.265625q0.921875 0.1875 1.46875 0.875q0.5625 0.6875 0.5625 1.671875q0 1.40625 -1.046875 2.40625q-1.03125 1.0 -2.5625 1.0q-1.453125 0 -2.421875 -0.84375q-0.953125 -0.84375 -1.109375 -2.1875z" fill-rule="nonzero"></path><path fill="#ffffff" d="m302.67838 369.08002l0 -4.515625l-3.921875 -6.21875l2.53125 0l2.53125 4.25l2.46875 -4.25l2.5 0l-3.9375 6.234375l0 4.5l-2.171875 0zm6.5412292 -2.765625l2.046875 -0.203125q0.09375 0.6875 0.515625 1.09375q0.4375 0.40625 1.0 0.40625q0.640625 0 1.078125 -0.515625q0.453125 -0.53125 0.453125 -1.578125q0 -1.0 -0.4375 -1.484375q-0.4375 -0.5 -1.15625 -0.5q-0.890625 0 -1.59375 0.78125l-1.65625 -0.234375l1.046875 -5.59375l5.4375 0l0 1.921875l-3.875 0l-0.328125 1.828125q0.6875 -0.34375 1.40625 -0.34375q1.375 0 2.328125 1.0q0.953125 1.0 0.953125 2.578125q0 1.328125 -0.765625 2.375q-1.046875 1.421875 -2.90625 1.421875q-1.5 0 -2.4375 -0.796875q-0.9375 -0.796875 -1.109375 -2.15625zm12.151093 2.765625l0 -2.15625l-4.390625 0l0 -1.8125l4.65625 -6.8125l1.734375 0l0 6.8125l1.328125 0l0 1.8125l-1.328125 0l0 2.15625l-2.0 0zm0 -3.96875l0 -3.671875l-2.46875 3.671875l2.46875 0z" fill-rule="nonzero"></path><path fill="#ffffff" d="m359.37128 369.08002l0 -4.515625l-3.921875 -6.21875l2.53125 0l2.53125 4.25l2.46875 -4.25l2.5 0l-3.9375 6.234375l0 4.5l-2.171875 0zm6.5412292 -2.765625l2.046875 -0.203125q0.09375 0.6875 0.515625 1.09375q0.4375 0.40625 1.0 0.40625q0.640625 0 1.078125 -0.515625q0.453125 -0.53125 0.453125 -1.578125q0 -1.0 -0.4375 -1.484375q-0.4375 -0.5 -1.15625 -0.5q-0.890625 0 -1.59375 0.78125l-1.65625 -0.234375l1.046875 -5.59375l5.4375 0l0 1.921875l-3.875 0l-0.328125 1.828125q0.6875 -0.34375 1.40625 -0.34375q1.375 0 2.328125 1.0q0.953125 1.0 0.953125 2.578125q0 1.328125 -0.765625 2.375q-1.046875 1.421875 -2.90625 1.421875q-1.5 0 -2.4375 -0.796875q-0.9375 -0.796875 -1.109375 -2.15625zm8.151123 0l2.046875 -0.203125q0.09375 0.6875 0.515625 1.09375q0.4375 0.40625 1.0 0.40625q0.640625 0 1.078125 -0.515625q0.453125 -0.53125 0.453125 -1.578125q0 -1.0 -0.4375 -1.484375q-0.4375 -0.5 -1.15625 -0.5q-0.890625 0 -1.59375 0.78125l-1.65625 -0.234375l1.046875 -5.59375l5.4375 0l0 1.921875l-3.875 0l-0.328125 1.828125q0.6875 -0.34375 1.40625 -0.34375q1.375 0 2.328125 1.0q0.953125 1.0 0.953125 2.578125q0 1.328125 -0.765625 2.375q-1.046875 1.421875 -2.90625 1.421875q-1.5 0 -2.4375 -0.796875q-0.9375 -0.796875 -1.109375 -2.15625z" fill-rule="nonzero"></path><path fill="#ffffff" d="m416.06418 369.08002l0 -4.515625l-3.921875 -6.21875l2.53125 0l2.53125 4.25l2.46875 -4.25l2.5 0l-3.9375 6.234375l0 4.5l-2.171875 0zm6.5412292 -2.765625l2.046875 -0.203125q0.09375 0.6875 0.515625 1.09375q0.4375 0.40625 1.0 0.40625q0.640625 0 1.078125 -0.515625q0.453125 -0.53125 0.453125 -1.578125q0 -1.0 -0.4375 -1.484375q-0.4375 -0.5 -1.15625 -0.5q-0.890625 0 -1.59375 0.78125l-1.65625 -0.234375l1.046875 -5.59375l5.4375 0l0 1.921875l-3.875 0l-0.328125 1.828125q0.6875 -0.34375 1.40625 -0.34375q1.375 0 2.328125 1.0q0.953125 1.0 0.953125 2.578125q0 1.328125 -0.765625 2.375q-1.046875 1.421875 -2.90625 1.421875q-1.5 0 -2.4375 -0.796875q-0.9375 -0.796875 -1.109375 -2.15625zm15.088623 -5.34375l-1.984375 0.21875q-0.078125 -0.609375 -0.390625 -0.90625q-0.3125 -0.296875 -0.796875 -0.296875q-0.65625 0 -1.109375 0.59375q-0.4375 0.578125 -0.5625 2.4375q0.765625 -0.90625 1.921875 -0.90625q1.28125 0 2.203125 0.984375q0.921875 0.96875 0.921875 2.53125q0 1.640625 -0.96875 2.640625q-0.96875 1.0 -2.484375 1.0q-1.625 0 -2.671875 -1.265625q-1.046875 -1.265625 -1.046875 -4.140625q0 -2.953125 1.078125 -4.25q1.09375 -1.3125 2.84375 -1.3125q1.21875 0 2.015625 0.6875q0.8125 0.6875 1.03125 1.984375zm-4.671875 4.484375q0 1.015625 0.46875 1.5625q0.46875 0.53125 1.046875 0.53125q0.578125 0 0.953125 -0.4375q0.390625 -0.453125 0.390625 -1.46875q0 -1.046875 -0.421875 -1.53125q-0.40625 -0.484375 -1.015625 -0.484375q-0.59375 0 -1.015625 0.46875q-0.40625 0.453125 -0.40625 1.359375z" fill-rule="nonzero"></path><path fill="#ffffff" d="m19.213797 425.08002l0 -4.515625l-3.921875 -6.21875l2.53125 0l2.53125 4.25l2.46875 -4.25l2.5 0l-3.9375 6.234375l0 4.5l-2.171875 0zm6.5412292 -2.765625l2.046875 -0.203125q0.09375 0.6875 0.515625 1.09375q0.4375 0.40625 1.0 0.40625q0.640625 0 1.078125 -0.515625q0.453125 -0.53125 0.453125 -1.578125q0 -1.0 -0.4375 -1.484375q-0.4375 -0.5 -1.15625 -0.5q-0.890625 0 -1.59375 0.78125l-1.65625 -0.234375l1.046875 -5.59375l5.437502 0l0 1.921875l-3.875002 0l-0.328125 1.828125q0.6875 -0.34375 1.40625 -0.34375q1.375 0 2.328127 1.0q0.953125 1.0 0.953125 2.578125q0 1.328125 -0.765625 2.375q-1.0468769 1.421875 -2.906252 1.421875q-1.5 0 -2.4375 -0.796875q-0.9375 -0.796875 -1.109375 -2.15625zm8.11986 -5.90625l0 -1.921875l7.03125 0l0 1.5q-0.875 0.859375 -1.78125 2.46875q-0.890625 1.59375 -1.359375 3.40625q-0.46875 1.796875 -0.46875 3.21875l-1.984375 0q0.046875 -2.234375 0.921875 -4.546875q0.875 -2.3125 2.3125 -4.125l-4.671875 0z" fill-rule="nonzero"></path><path fill="#ffffff" d="m66.59917 425.08002l0 -4.515625l-3.9218788 -6.21875l2.5312538 0l2.53125 4.25l2.46875 -4.25l2.5 0l-3.9375 6.234375l0 4.5l-2.171875 0zm6.5412292 -2.765625l2.046875 -0.203125q0.09375 0.6875 0.515625 1.09375q0.4375 0.40625 1.0 0.40625q0.640625 0 1.078125 -0.515625q0.453125 -0.53125 0.453125 -1.578125q0 -1.0 -0.4375 -1.484375q-0.4375 -0.5 -1.15625 -0.5q-0.890625 0 -1.59375 0.78125l-1.65625 -0.234375l1.046875 -5.59375l5.4375 0l0 1.921875l-3.875 0l-0.328125 1.828125q0.6875 -0.34375 1.40625 -0.34375q1.375 0 2.328125 1.0q0.953125 1.0 0.953125 2.578125q0 1.328125 -0.765625 2.375q-1.046875 1.421875 -2.90625 1.421875q-1.5 0 -2.4375 -0.796875q-0.9375 -0.796875 -1.109375 -2.15625zm9.885483 -3.03125q-0.796875 -0.328125 -1.171875 -0.921875q-0.359375 -0.59375 -0.359375 -1.296875q0 -1.203125 0.84375 -1.984375q0.84375 -0.78125 2.390625 -0.78125q1.515625 0 2.359375 0.78125q0.859375 0.78125 0.859375 1.984375q0 0.75 -0.390625 1.34375q-0.390625 0.578125 -1.09375 0.875q0.890625 0.359375 1.359375 1.046875q0.46875 0.6875 0.46875 1.59375q0 1.484375 -0.953125 2.421875q-0.953125 0.921875 -2.515625 0.921875q-1.46875 0 -2.4375 -0.765625q-1.15625 -0.90625 -1.15625 -2.484375q0 -0.875 0.421875 -1.59375q0.4375 -0.734375 1.375 -1.140625zm0.421875 -2.0625q0 0.609375 0.34375 0.953125q0.34375 0.34375 0.9375 0.34375q0.578125 0 0.921875 -0.34375q0.359375 -0.359375 0.359375 -0.96875q0 -0.578125 -0.359375 -0.921875q-0.34375 -0.34375 -0.90625 -0.34375q-0.59375 0 -0.953125 0.359375q-0.34375 0.34375 -0.34375 0.921875zm-0.1875 4.59375q0 0.84375 0.4375 1.328125q0.4375 0.46875 1.078125 0.46875q0.640625 0 1.046875 -0.453125q0.421875 -0.453125 0.421875 -1.328125q0 -0.75 -0.421875 -1.203125q-0.421875 -0.46875 -1.078125 -0.46875q-0.75 0 -1.125 0.53125q-0.359375 0.515625 -0.359375 1.125z" fill-rule="nonzero"></path><path fill="#ffffff" d="m132.59962 425.08002l0 -4.515625l-3.921875 -6.21875l2.53125 0l2.53125 4.25l2.46875 -4.25l2.5 0l-3.9375 6.234375l0 4.5l-2.171875 0zm6.5412292 -2.765625l2.046875 -0.203125q0.09375 0.6875 0.515625 1.09375q0.4375 0.40625 1.0 0.40625q0.640625 0 1.078125 -0.515625q0.453125 -0.53125 0.453125 -1.578125q0 -1.0 -0.4375 -1.484375q-0.4375 -0.5 -1.15625 -0.5q-0.890625 0 -1.59375 0.78125l-1.65625 -0.234375l1.046875 -5.59375l5.4375 0l0 1.921875l-3.875 0l-0.328125 1.828125q0.6875 -0.34375 1.40625 -0.34375q1.375 0 2.328125 1.0q0.953125 1.0 0.953125 2.578125q0 1.328125 -0.765625 2.375q-1.046875 1.421875 -2.90625 1.421875q-1.5 0 -2.4375 -0.796875q-0.9375 -0.796875 -1.109375 -2.15625zm8.166733 0.28125l1.984375 -0.21875q0.078125 0.609375 0.375 0.90625q0.3125 0.28125 0.828125 0.28125q0.625 0 1.0625 -0.578125q0.453125 -0.59375 0.578125 -2.4375q-0.765625 0.90625 -1.9375 0.90625q-1.265625 0 -2.1875 -0.96875q-0.921875 -0.984375 -0.921875 -2.5625q0 -1.625 0.96875 -2.625q0.984375 -1.0 2.484375 -1.0q1.625 0 2.671875 1.265625q1.046875 1.265625 1.046875 4.15625q0 2.9375 -1.09375 4.25q-1.078125 1.296875 -2.828125 1.296875q-1.265625 0 -2.046875 -0.671875q-0.765625 -0.671875 -0.984375 -2.0zm4.65625 -4.5q0 -0.984375 -0.46875 -1.53125q-0.453125 -0.5625 -1.046875 -0.5625q-0.578125 0 -0.953125 0.453125q-0.375 0.453125 -0.375 1.46875q0 1.046875 0.40625 1.53125q0.40625 0.484375 1.03125 0.484375q0.59375 0 1.0 -0.46875q0.40625 -0.46875 0.40625 -1.375z" fill-rule="nonzero"></path><path fill="#ffffff" d="m189.29254 425.08002l0 -4.515625l-3.921875 -6.21875l2.53125 0l2.53125 4.25l2.46875 -4.25l2.5 0l-3.9375 6.234375l0 4.5l-2.171875 0zm13.478729 -8.109375l-1.984375 0.21875q-0.078125 -0.609375 -0.390625 -0.90625q-0.3125 -0.296875 -0.796875 -0.296875q-0.65625 0 -1.109375 0.59375q-0.4375 0.578125 -0.5625 2.4375q0.765625 -0.90625 1.921875 -0.90625q1.28125 0 2.203125 0.984375q0.921875 0.96875 0.921875 2.53125q0 1.640625 -0.96875 2.640625q-0.96875 1.0 -2.484375 1.0q-1.625 0 -2.671875 -1.265625q-1.046875 -1.265625 -1.046875 -4.140625q0 -2.953125 1.078125 -4.25q1.09375 -1.3125 2.84375 -1.3125q1.21875 0 2.015625 0.6875q0.8125 0.6875 1.03125 1.984375zm-4.671875 4.484375q0 1.015625 0.46875 1.5625q0.46875 0.53125 1.046875 0.53125q0.578125 0 0.953125 -0.4375q0.390625 -0.453125 0.390625 -1.46875q0 -1.046875 -0.421875 -1.53125q-0.40625 -0.484375 -1.015625 -0.484375q-0.59375 0 -1.015625 0.46875q-0.40625 0.453125 -0.40625 1.359375zm9.322983 -7.15625q1.5625 0 2.453125 1.109375q1.046875 1.328125 1.046875 4.375q0 3.046875 -1.0625 4.375q-0.875 1.109375 -2.4375 1.109375q-1.5625 0 -2.53125 -1.203125q-0.953125 -1.21875 -0.953125 -4.296875q0 -3.03125 1.0625 -4.375q0.875 -1.09375 2.421875 -1.09375zm0 1.703125q-0.359375 0 -0.65625 0.25q-0.296875 0.234375 -0.453125 0.84375q-0.21875 0.796875 -0.21875 2.6875q0 1.890625 0.1875 2.59375q0.203125 0.703125 0.484375 0.9375q0.296875 0.234375 0.65625 0.234375q0.375 0 0.671875 -0.234375q0.296875 -0.234375 0.453125 -0.84375q0.21875 -0.796875 0.21875 -2.6875q0 -1.890625 -0.203125 -2.59375q-0.1875 -0.703125 -0.484375 -0.9375q-0.28125 -0.25 -0.65625 -0.25z" fill-rule="nonzero"></path><path fill="#ffffff" d="m245.98544 425.08002l0 -4.515625l-3.921875 -6.21875l2.53125 0l2.53125 4.25l2.46875 -4.25l2.5 0l-3.9375 6.234375l0 4.5l-2.171875 0zm13.478729 -8.109375l-1.984375 0.21875q-0.078125 -0.609375 -0.390625 -0.90625q-0.3125 -0.296875 -0.796875 -0.296875q-0.65625 0 -1.109375 0.59375q-0.4375 0.578125 -0.5625 2.4375q0.765625 -0.90625 1.921875 -0.90625q1.28125 0 2.203125 0.984375q0.921875 0.96875 0.921875 2.53125q0 1.640625 -0.96875 2.640625q-0.96875 1.0 -2.484375 1.0q-1.625 0 -2.671875 -1.265625q-1.046875 -1.265625 -1.046875 -4.140625q0 -2.953125 1.078125 -4.25q1.09375 -1.3125 2.84375 -1.3125q1.21875 0 2.015625 0.6875q0.8125 0.6875 1.03125 1.984375zm-4.671875 4.484375q0 1.015625 0.46875 1.5625q0.46875 0.53125 1.046875 0.53125q0.578125 0 0.953125 -0.4375q0.390625 -0.453125 0.390625 -1.46875q0 -1.046875 -0.421875 -1.53125q-0.40625 -0.484375 -1.015625 -0.484375q-0.59375 0 -1.015625 0.46875q-0.40625 0.453125 -0.40625 1.359375zm11.119873 3.625l-2.0625 0l0 -7.75q-1.125 1.046875 -2.65625 1.546875l0 -1.859375q0.8125 -0.265625 1.75 -1.0q0.9375 -0.734375 1.296875 -1.71875l1.671875 0l0 10.78125z" fill-rule="nonzero"></path><path fill="#ffffff" d="m302.67838 425.08002l0 -4.515625l-3.921875 -6.21875l2.53125 0l2.53125 4.25l2.46875 -4.25l2.5 0l-3.9375 6.234375l0 4.5l-2.171875 0zm13.478729 -8.109375l-1.984375 0.21875q-0.078125 -0.609375 -0.390625 -0.90625q-0.3125 -0.296875 -0.796875 -0.296875q-0.65625 0 -1.109375 0.59375q-0.4375 0.578125 -0.5625 2.4375q0.765625 -0.90625 1.921875 -0.90625q1.28125 0 2.203125 0.984375q0.921875 0.96875 0.921875 2.53125q0 1.640625 -0.96875 2.640625q-0.96875 1.0 -2.484375 1.0q-1.625 0 -2.671875 -1.265625q-1.046875 -1.265625 -1.046875 -4.140625q0 -2.953125 1.078125 -4.25q1.09375 -1.3125 2.84375 -1.3125q1.21875 0 2.015625 0.6875q0.8125 0.6875 1.03125 1.984375zm-4.671875 4.484375q0 1.015625 0.46875 1.5625q0.46875 0.53125 1.046875 0.53125q0.578125 0 0.953125 -0.4375q0.390625 -0.453125 0.390625 -1.46875q0 -1.046875 -0.421875 -1.53125q-0.40625 -0.484375 -1.015625 -0.484375q-0.59375 0 -1.015625 0.46875q-0.40625 0.453125 -0.40625 1.359375zm12.807343 1.71875l0 1.90625l-7.21875 0q0.109375 -1.078125 0.6875 -2.046875q0.59375 -0.984375 2.328125 -2.578125q1.390625 -1.296875 1.703125 -1.765625q0.421875 -0.640625 0.421875 -1.25q0 -0.6875 -0.375 -1.0625q-0.359375 -0.375 -1.015625 -0.375q-0.640625 0 -1.03125 0.390625q-0.375 0.390625 -0.421875 1.296875l-2.0625 -0.21875q0.1875 -1.6875 1.15625 -2.421875q0.96875 -0.75 2.421875 -0.75q1.578125 0 2.484375 0.859375q0.921875 0.859375 0.921875 2.125q0 0.734375 -0.265625 1.390625q-0.265625 0.65625 -0.828125 1.359375q-0.375 0.484375 -1.34375 1.375q-0.96875 0.890625 -1.234375 1.1875q-0.265625 0.296875 -0.421875 0.578125l4.09375 0z" fill-rule="nonzero"></path><path fill="#ffffff" d="m359.37128 425.08002l0 -4.515625l-3.921875 -6.21875l2.53125 0l2.53125 4.25l2.46875 -4.25l2.5 0l-3.9375 6.234375l0 4.5l-2.171875 0zm13.478729 -8.109375l-1.984375 0.21875q-0.078125 -0.609375 -0.390625 -0.90625q-0.3125 -0.296875 -0.796875 -0.296875q-0.65625 0 -1.109375 0.59375q-0.4375 0.578125 -0.5625 2.4375q0.765625 -0.90625 1.921875 -0.90625q1.28125 0 2.203125 0.984375q0.921875 0.96875 0.921875 2.53125q0 1.640625 -0.96875 2.640625q-0.96875 1.0 -2.484375 1.0q-1.625 0 -2.671875 -1.265625q-1.046875 -1.265625 -1.046875 -4.140625q0 -2.953125 1.078125 -4.25q1.09375 -1.3125 2.84375 -1.3125q1.21875 0 2.015625 0.6875q0.8125 0.6875 1.03125 1.984375zm-4.671875 4.484375q0 1.015625 0.46875 1.5625q0.46875 0.53125 1.046875 0.53125q0.578125 0 0.953125 -0.4375q0.390625 -0.453125 0.390625 -1.46875q0 -1.046875 -0.421875 -1.53125q-0.40625 -0.484375 -1.015625 -0.484375q-0.59375 0 -1.015625 0.46875q-0.40625 0.453125 -0.40625 1.359375zm5.776123 0.78125l2.0 -0.25q0.09375 0.765625 0.5 1.171875q0.421875 0.390625 1.015625 0.390625q0.640625 0 1.078125 -0.46875q0.4375 -0.484375 0.4375 -1.3125q0 -0.78125 -0.421875 -1.234375q-0.421875 -0.453125 -1.015625 -0.453125q-0.40625 0 -0.953125 0.15625l0.234375 -1.671875q0.828125 0.015625 1.265625 -0.359375q0.453125 -0.390625 0.453125 -1.03125q0 -0.53125 -0.328125 -0.859375q-0.328125 -0.328125 -0.859375 -0.328125q-0.53125 0 -0.90625 0.375q-0.359375 0.359375 -0.453125 1.0625l-1.890625 -0.3125q0.203125 -0.984375 0.59375 -1.5625q0.40625 -0.578125 1.109375 -0.90625q0.71875 -0.34375 1.609375 -0.34375q1.515625 0 2.421875 0.96875q0.765625 0.78125 0.765625 1.78125q0 1.421875 -1.546875 2.265625q0.921875 0.1875 1.46875 0.875q0.5625 0.6875 0.5625 1.671875q0 1.40625 -1.046875 2.40625q-1.03125 1.0 -2.5625 1.0q-1.453125 0 -2.421875 -0.84375q-0.953125 -0.84375 -1.109375 -2.1875z" fill-rule="nonzero"></path><path fill="#ffffff" d="m416.06418 425.08002l0 -4.515625l-3.921875 -6.21875l2.53125 0l2.53125 4.25l2.46875 -4.25l2.5 0l-3.9375 6.234375l0 4.5l-2.171875 0zm13.478729 -8.109375l-1.984375 0.21875q-0.078125 -0.609375 -0.390625 -0.90625q-0.3125 -0.296875 -0.796875 -0.296875q-0.65625 0 -1.109375 0.59375q-0.4375 0.578125 -0.5625 2.4375q0.765625 -0.90625 1.921875 -0.90625q1.28125 0 2.203125 0.984375q0.921875 0.96875 0.921875 2.53125q0 1.640625 -0.96875 2.640625q-0.96875 1.0 -2.484375 1.0q-1.625 0 -2.671875 -1.265625q-1.046875 -1.265625 -1.046875 -4.140625q0 -2.953125 1.078125 -4.25q1.09375 -1.3125 2.84375 -1.3125q1.21875 0 2.015625 0.6875q0.8125 0.6875 1.03125 1.984375zm-4.671875 4.484375q0 1.015625 0.46875 1.5625q0.46875 0.53125 1.046875 0.53125q0.578125 0 0.953125 -0.4375q0.390625 -0.453125 0.390625 -1.46875q0 -1.046875 -0.421875 -1.53125q-0.40625 -0.484375 -1.015625 -0.484375q-0.59375 0 -1.015625 0.46875q-0.40625 0.453125 -0.40625 1.359375zm9.885498 3.625l0 -2.15625l-4.390625 0l0 -1.8125l4.65625 -6.8125l1.734375 0l0 6.8125l1.328125 0l0 1.8125l-1.328125 0l0 2.15625l-2.0 0zm0 -3.96875l0 -3.671875l-2.46875 3.671875l2.46875 0z" fill-rule="nonzero"></path></g></svg>

